<?xml version="1.0" encoding="UTF-8"?>
<svg id="Layer_1" data-name="Layer 1" xmlns="http://www.w3.org/2000/svg" viewBox="0 0 2816 1536" fill="#fff">
  <defs>
    <style>
      .cls-1 {
        fill: #fff;
      }
    </style>
  </defs>
  <path class="cls-1" d="M1971.72,821.57c3.07-5.24,7.23-11.24,12.28-15.56l-.7,12.96c-4.91.12-9.02,1.24-11.58,2.6Z"/>
  <path class="cls-1" d="M2212.36,750.14c-1.54.64-4.39,3.82-6.37,3.84l-63.75.51c-8.47.07-15.92,11.85-21.24,15.57l-5.82,4.07c-1.37.95-.39,4.62-.31,6.7l.25,6.26c.04,1.04-13.42,10.35-27.82,7.61-11.04-2.1-20.75-2.04-31.59.75l4.08,12.28c-14.25,11.83-30.76,17.49-47.73,24.68-10.07,4.26-20.53,11-32.6,7.79l-14.62-6.92,6.89-11.73c1.53,7.55,11.02,6.63,16.72,3.25l8.95-5.32c7.76-4.62,13.81-8.85,23.98-6.13,6.78,1.82,11.72-7.5,34.02-6.59.06-1.99-1.32-8.04-3.55-8.56l-11.01-2.55c9.64-16.97,38.32-19.86,58.87-15.22l4.57-6.2c21.66-3.9,22.89-26.55,55.81-24.48l19.89,1.25,32.39-.88Z"/>
  <path class="cls-1" d="M2212.36,750.14c.46-2.56,1.45-5.69,2.94-5.86l8.48-.99,11.57-15.12,4.8-13.82c1.86-5.35,5.91-9.38,9.64-12.46l-11.41,24.39c-3.07,6.57-7.72,16.25-14.26,18.97l-11.75,4.89Z"/>
  <path class="cls-1" d="M1128.78,0l5.46,8.37c2.54,3.01,7.31,6.43,11.36,8.83l-15.86,16.56c-.86,2.46-2.82,7.1-4.43,8.93l-22.22,25.38c16.3,2.51,33.6,5.11,46.84,16.04l9.08,10.25,27.86-9.19c7.24-2.39,21.99,2.37,27.52-7.34,3.24-5.69,4.28-16.18,13.43-18.16,4.34-.94,8.5-2.87,11.81-6.33,23.92-11.97,48.95-19.62,75.04-26.55l4.57-2.69c4.39-2.58-13.88-6.69-28.98-16.23-14.76-9.33-32.12-5.65-46.42-.84l-23.85-7.02h1596v1536H0V0h1128.78ZM1674.85,10.01c-4.28-7.13-27-2.51-33.54,4.53l33.54-4.53ZM1984,806.01c.07-7.83-2.1-18.68-5.77-26.44-4.07-8.61-15.7,5.87-19.33,7.15-1.24.44-4.42-2.51-3.99-3.75,1.71-4.87,17.61-12.69,10.83-27.15-.88-1.88.55-6.75-.75-7.97-1.56-1.47-5.61-3.97-7.78-4.89l-22.98-9.75-9.9,17.36c-.93,1.97-3.38,7.15-3.3,6.99l-1.22-6.49c-.12-.65-1.15-.32-1.89.08-8.73,4.96-10.95,9.6-13.52,17.72-3.22,10.16-5.59,19.22-.59,29.45,8.22,16.8-9.91,42.15-20.19,35.82-9.54-5.87-10.61-35.51-9.76-38.35l9.61-32.29,7.31-15.84-19.48,16.27,17.76-27.79,10.38,1.32c7.97-8.54,24.83-11.6,35.5-6.57l17.84-1.49-6.88-11.39-10.31-.74c-2.38-.17-3.64-4.18-5.49-7.73l-24.67,3.27c-8.57,5.96-17.79,6.36-25.16-1.51-4.96-5.29-10.91-5.37-19.47-4.73l14.21-14.22c-6.61.06-12.04,3.26-18.35,6.38l-23.05,11.39c-6.99,3.45-13.44,4.11-20.72,1.96l1.48-6.57-26.98,6.05c9.46-8.89,16.52-16.97,26.78-21.43l22.33-9.71-26.33-4.55c-15.16,6.5-19.77-5.15-29.86-3.04-7.33-6.73-15.67-11.56-26.64-6.14l-22.11-6.86-5.21-15.56-4.78,11.71-578.18-.02,5.04,6.72c3.15,4.2-5.66,9.11-2.06,13.74,2.64-6.03,4.54-4.75,4.83,1.42l-13.65-1.36c-11.44-1.14-20.23-3.04-32.79-6.97-2.64,5.71,1.39,11.07,3.86,17.83l6.4,17.48c1.27,3.47.71,10.69.73,15.98l8.68,2.1-6.33,2.94-3.39,38.25c-1.21,13.61-4.18,24.79-8.99,38.03-5.38,14.79,13.76,36.55,3.65,52.73-4.77,7.63-5.27,13.88,2.57,19.76,9.9,7.42,1.69,15.82,12.38,30.94l11.78,16.66c3.14,4.43,8.79,5.75,8.45,13.63-.31,7.15,5.01,11.95,13.09,13.42l-3.9,10.81,14.1,18.25c3.84,4.98,10.49,11.59,11.64,17.08l2.05,9.8c.95,4.56,18.3-.9,31.77,11.51,5.87.73,11.13,2.88,14.77,7.01,12.98,4.17,22.26,12.75,23,28.12l45.23-4.32c5.19-.5,9.22,2.8,11.94,6.17,24.8,8.66,48.74,18.79,74.28,25.17,18.27,4.56,38.6-1.42,56.96,1.76l.88-10.69,38.94.15,10.68,10.96,1.61.57,20.81,18.02c3.62,3.13,4.3,14.99,7.29,18.7,5.51,6.82,15.27,10.9,22.18,14.32l1.49,1.69c11.65-1.47,8.09-14.64,16.24-17.79,15.35-5.93,33.55,3.28,40.95,17.96l.77,1.57,7.81,12.95c3.09,5.12,7.91,8.73,8.7,15.2-8.13-8.47-13.99-17.22-18.13-27.04l-.47-1.68-10.42-10.35c-8.29-8.24-21.17-9.85-30.92-3.47l-4.76,10.3c-1.35,2.91-8.19,4.96-10.84,3.23l-1.56-1.02c-7.71-2.6-17.06-6.8-23.26-13.78l-7.48-19.64-20.32-17.39-1.13-.96-11.23-10.17-34.01-.25-1.91,10.01-61.1-.04-76.95-26.71c-2.08-6.7-8.71-6.36-14.11-4.08l-36.41,2.98,8.65,18.4,16.82,36.39c3.87,8.37,5.04,12.55,13.88,17.64l17.65,15.63c9.75,8.64-.89,13.76,1.78,22.4l-18.05-2.65c4.91,5.6,9.6,11.7,14.79,15.2l14.42,9.71c7.38-.15,11.39,2.53,17.25,7.39,4.57,3.79,10.94,6.83,12.75,10.91,6.02,13.5-6.28,30.55,1.17,32.88l11.57,3.63c6.84,2.15,14.1,9.41,20.47,14.44,5.36,4.22,7.91,10.66,11.42,17.21,4.04,3.81,17.56-6.23,13.16-12.2-4.03-5.47-6.63-10.09-7.61-16.95l-3.09,3.24-7.37-9.38-1.57,7.04c-1.39-.83-5.73-4.57-5.93-6.76-.24-2.55,1.16-7.14,1.93-9.7-7.67-7.48-13.12-18.76-15.63-30.1-1.6-7.21-5.91-10.32-10.37-16.08l-10.08-13.05c-4.66-6.04-7.82-8.42-7.96-16.88l-13.81-17.57c-3.72-4.73-7.81-11.83-12.74-14.68-9.87-5.69-10.3-12.34-12.44-22.66-1.46-7.01-4.07-18.26-.7-24.14l19.9,6.33,13.65,6.64c-.21,6.58,1.1,12.76,3.88,18.61l11.03,23.18c-1.63,2.97-3.68,9.26-2.08,12.63.74,1.54,4.96-2.13,5.82-4.7l14.3,16.47c4.4,5.07,10.77,8.34,17.15,10.39-1.7,15.71,10.16,12.27,19,25.15,22.6,4.94-3.9,17.75,12.61,27.28l20.23,11.67c1.37,5.73,3.97,9.87,8.75,13.39,9.98,7.34,17.45,15.51,25.16,24.97l14.54,17.84,4.39,16.84,6.63,9.2c3.22,4.47-10.44,11.33-2.23,16.24l-8.36,4.1c5.32,16.43,15.61,27.56,31.47,33.4,5.87,2.16,10.7,8.27,15.17,12.92,8.23,8.58,24.89,6,33.92,11.96,11.6,7.67,21.67,14.9,34.97,19.57l28.31,9.93,15.97,7.41,19.47,6.56c10.06,3.39,17.54,5.16,27.69,1.15l18.65-7.35c11.37-4.48,27.44,3.47,35.75,11.37l24.95,23.71c5.07-11.58-1.96-19.81,12.4-33.98l25.61-.71c1.27-4.98-2.13-9.81-6.11-13.28l-12.36-10.8c4.22-1.83,7.21-2.77,7.24-4.55l.14-9.81,33.15-.54,11.79-1.87,17.24-17.92,5.41,14.71,9.16-32.96-3.46.5c-.62.09-2.88-.05-2.43-.48l3.8-3.66c2.8-8.34,5.88-16.58,12.66-22.87,5.08-4.72,5.21-16.61-2.06-17.14l-19.84-1.46c-7-.52-15.15,1.91-22.78,3.87-8.92,2.29-20.17,1.84-26.96,9.43-8.15,9.11,1.08,37.73-27.02,47.46l4.83,3.35c1.22.85-2.58,4.5-4.06,4.56l-6.27.23c-1.07.04-.92-1.53-1.38-5.63l-23.95,4.99-20.02,4.69-12.08,2.11c-5.88-9.01-13.73-12.61-24.13-12.44l-11.73-12.65c-3.53-9.91-7.82-17.58-14.9-25.16-5.75-6.73-9.76-14.97-7.95-23.37-10.38-9.18-9.18-20.83-8.34-32.98,1.12-16.08,1.34-32.2,7.57-47.07l7.63-18.19c-14.23.4-33.27-6.23-43.25-13.05-6.31-8.48-10.82-19.54-10.15-28.53,5,9.27,6.07,23.08,14.51,28.32,7.98,4.95,25.42,9.54,37.39,10.52-11.23-18.78.91-42.47-2.21-40.9l4.31-2.16,15.67-14.97c7.94-.98,16.07-3.75,22.91-9.88l9.91-8.88-3.21-2.9c-.77-.69.98-3.09,1.83-3.92l4.99,3.94c3.24,2.56,19.47-11.96,41.44-1.61,1.69.8,7.12,2.45,8.16,1.27l5.99-6.78c3.78,2.1,10.22,6.48,13.86,9.76l7.14,6.43c1.9,1.71,7.89-1.97,10.47-2.51,1.23-.26,4.43,1.87,5.58,2.36,1.45.61,2.78-2.54,4.53-7.1l10.55,6.49,4.09,2.92c1.16.82,4.08-1.81,6.02-4.15l-12.94-7.95c3.18-4.39,5.2-7.56,6.66-10.5l-10.2.7c12.77-13.89,32.36-6.39,33.81-8.55l3.45-5.14.91,8.19,19.34-3.32c15.89-2.73,29.82,3.14,38.48,17.38l22.36-9.98c4.08-1.82,10.94,5.48,13.83,8.57l13.03,13.89c8.65,9.22-3.8,16.35,2.13,33.39,2.17,6.24,5.27,11.41,8.94,17.24l12.84,20.46c5.31,5.38,13.15,8.18,10.62,18.73l11.42-1.36c1.08-.13,3.47,1.1,5.72,2.49,3.4-12.46,10.48-28.1,7.1-42.9l-7.47-20.25c-1.91-5.19-2.64-12.04-2.47-17.21-8.07-12.39-13.66-25-16.68-39.7-3.69-17.96,3.76-29.82,15.99-44.01,3.5-4.06,6.28-5,11.35-8.6l18.44-13.1c3.87-11.88,13.38-18.34,25.77-17.75,5.78-10.31,13.5-19.17,26.48-17.86l8.37-6.9c-3.13-1.03-5.93-1.55-5.7-2.5l1.45-5.79c.32-1.27,5.03.44,6.23-.06,3.43-1.44,7.81-8.3,8.89-13.35l-14.88-4.23,13.68-2.96-3.89-17.45-7.43-4.61c-1.34-.83,1.26-4.56,2.16-6.2l-2.54-20.91c-1.1-9.04-4.26-18.73,3.08-25.97l-.53,14.24c-.03.77,2.06,2.94,1.73,3.64l-2.25,4.83c4.22,1.99,11.41,9.78,9.72,13.84-2.13,5.12-3.96,8.8-3.52,15.31l17-23.65c8.95-12.45-3.49-17.07-4.01-28.45,5.93,3,7.12,4.61,10.71,9.45l13.85-17.91c3.53-4.56,7.31-17.51,1.02-21.91,15.66-1.97,31.65-2.8,45.7-13.2l-33.69,2.31c19.63-12.56,41.41-2.14,45.52-15.23l4.29,3.39c1.22.96,5.01-2.22,6.66-2.4l18.29-2-.31-9.91-4.8,6.69c-1.16,1.62-5.81-2.66-6.99-4.31l-7.65-10.67,4.64-5.22-.71-8.29,13.41-20.14c12.03-.21,21.72-4.54,24.28-15.99l7.16,4.65c1.7,1.1,5.97-3,7.87-3.75l15.63-6.15c2.72-1.07,7.24-4.63,7.1-7.19-.17-3-6.12-6.69-8.38-8.48-1.86-4.62-2.52-9.7-8.73-12.3l-.96-30.66c-.33-10.63-21.25-2.8-22.19-3.95l-4.48-5.5-9.14,7.51c1.69-3.62,5.78-12.18,10.83-8.96l4.76,4.69c1.36,1.34,12.59-6.49,18.86-.78,3.58,3.26,3.13,8.05,3.84,13.27l3.14,22.99,5.75,10.13c5.27,9.29,17.05,7.4,25.37,4.25,2.94-.41,8.41-1.09,10.59-2.23l12.74-6.63c2.65-.91,5.41-.57,2.03,1.85-.96,2.5-1.8,5.1-.96,4.9l5.54-1.36c1.46.55,4.94,1.87,2.89,1.1l-23.38,12.72c-7.97,4.34-13.02,13.23-10.25,22.63l13.04,10.11c10.09-5.92,19.28-13.2,26.35-21.86-.02-2.66-.12-3.97.67-3.89l3.47.37c4.99.53,9.86-.95,14.81-2.64l24.42-8.35,19.33-7.04,4.18-1.95c.54-.25-2.21-1.03-2.71-1.35l-3.26-2.05c10.73-5.31,26.91-2.72,31.74-17.96l-15.14-4.7c4.99-5.72,3.85-15.1-2.74-15.46-3.54,2.4-8.72,10.49-11.61,14.09-5.29,6.59-6.62,8.85-6.98,18.66l-9.79-4.24c-5.64,2.28-12.17,3.31-18.07,1.9l-23.01-5.53,3.2-5.61-12.5-1.44-8.27-16.41c.1-.69.8-3.7.61-3.61.24-.11-10.74.23-5.31-1.38l8.69-14.91c2.84-1.89.62-3.02-2.53-2.65l-16.89,3.04-9.23-6.11c-2.08.17-3.23-.44-3.67-3.16l15.13,2.98c5.41,1.06,24.64-9.29,25.04-16.23.76-13.11-26.64-18.49-53.4-9.9-18.65,5.99-37.39,12.5-52.81,25.26l-15.37,16.41-11.97,10.71c-2.29-.28-5.55-.67-4.42-.54l10.66-10.07c5.81-5.49,9.53-11.11,14.82-17.37l12.81-15.15c5.11-6.04,15.56-11,23.14-14.41,2.22-1,9.97.52,11.12-1.61l4.93-9.19c4.64-8.64,17.85-13,27.73-13.06l50.33-.28,36.23,1.48,35.85-1.41,18.37-14.07c7.42-5.68,11.93-11.74,22.56-13.67l18.51-3.35c6.1-1.1,28.13-12.79,26.83-18.98l-2.47-11.66.64-13.72c.19-4.13-15.33-14.04-25.64-11.34-3.43-5.91-7.19-14.2-17.39-10.82l-3.18-2.75,16.96-4.81-18.12-8.7c-5.55,1.95-12.07,1.94-14.7-1.76-4.02-5.66-7.07-5.27-12.68-6.45l-15.2-3.2-4.23-10.96c-15.23-1.54-14.17-12.32-25.49-10.84l1.1-3.47c4.79-4.73,7.68-14.33,2.21-19.11l-11.61-9.19,7.36.37c-.88-1.33-3.38-7.3-5.13-8.63l-13.38-10.15c-.07-1.98.41-4.61-.74-5.13l-5.74-2.59-.56-6.48c-.12-1.34-4.46-2.81-5.62-3.51l-6.41-9.32c-8.57-8.01-16.43-18.3-21.46-28.5l-5.34-.4-15.02,19.9c.19,3.94-.7,8.56-2.72,12.13-4.61,8.15-10,8.9-16.3,11.61l-16.24,8.79-6.11,2.29c2.2-.83-14.89-4.63-17.18-14.12l-18.23-2.05,3.99-4.44c.55-.61-2.8-1.27-3.91-1.96-3.37-2.1-5.31-9.32-6.83-13.87l-1.68-5,1.37-4.31c.88-2.76-1.5-11.1,1.07-13.26,2.42-2.04,4.72-5.25,3.46-6.57-1.01-1.06-4.85-1.79-6.11-1.06-1.57.9-4.36,3.19-5.34,2.32l-5.18-4.6c-17.76.31-33.39-5.56-29.52-10.6l2.53-3.29c-3.05-.87-8.35-2.39-10.63-3.61l-35.26-18.78c-7.11,2.85-16.51,7.44-22.86,6.78l-18.37-1.92c-12.42-1.3-24.41-7.32-36.6-5.84-5.19.63-11.88,5.98-12.6,10.04-.87,4.91,3.37,10.67,6.68,14.89,5.13,6.55-3.27,16.75-10.62,18.95l10.05,2.58c1.91.49,3.13,4.05,4.09,6.63l5.81,15.45-8.13,4.93c-5,15.04-24.95,19.16-10.32,28.03l20.49,12.41c13.04,10.45,18.62,34.48,8.92,48.83-13.33,19.71-35.62,27.07-58.5,32.1,1.49,7.07,6.31,14.17,11.22,18.56.46,32.39,22.88,41.34,1.88,54.01l3.95,10.69-12.22-7.66-9.36,12.07-11.48-5.09c-5.61-11.41-14.25-11.53-26.28-26.1l-11.99-14.52c7.44-10.83,1.03-21.49-1.16-31.52l2.25-18.83-40.23-3.61c-12.31-1.1-18.96-.45-29.45-7.32l-39.49-13.96-17.8-12.62c-6.21-4.4-13.62-5.04-21.08-7.27l-24.46-7.3c-14.34-4.28-25.1,4.05-39.48,2.69,1.16-7.3.03-10.16-2.9-15.94l-12.88-25.37-22.89-.72c-9.22-.29-7.86-11.45-8.21-15.96-2.54-31.85,14.08-35.99,20.17-53.92l14.43-11.55,9.65-9.05,11.96-4.84-6.04-4.82c11.7-.55,25.98.9,33.56-8.99,3.82-4.99-7.85-11.48-13.15-11.91,7.65.2,16.63-.2,24.28-1.83l5.01-11.6,13.61,1.65c11.89,1.44,21.23-.26,29.24-9.21l18.97-21.18-9.44-3.92,19.98-13.15,12.22-9.35-15.5-6.01.62-3.25,24.84-.53c1.32,7.06,10.29,5.7,14.7,8.06,9.22,4.94,13.95,18.31,27.93,14.51l-10.27-9,4.7-4.37c-5.83-4.06-9.07-8.06-8.49-13.89,2.36,5.76,12.19,14.19,18.49,9.15,2.9-2.32,5.62-4.33,9.97-6.7l21.7-11.86c2.79-2.47,5.67-11.85,3.61-14.61l-13.79-9.98c-.06-3.12.25-6.13-1.07-7.19l-6.67-5.32c11.3.46,18.64.6,25.51-8.4l-10.72-4.41,7.17-4.18c1.39-.81-3.45-5.06-5.12-5.07-5.69.18-15.59-2.74-15.99-7.46-.66-7.82-10.46-3.95-15.54-4.68-16-2.31-29.95-6.09-46.89-3.5-3.49.54-3.91,9.65-2.5,13.56,1.07,2.94,5.29,5.53,9.43,8.54-1.31,4.39-8.34,6.68-13.13,6.88-2.5,9.2-6.72,19.23-13.86,24.18l-.88-9.12c-.19-1.94-6.75-4.64-7.74-2.97l-3.83,6.49c-3.07,5.21,11.67,8.06,6.42,16.74l-13.48,5.08-18.97-16.39-.15-10.99,6.31,2.29c1.04.38,2.38-2.8,2.05-3.89l-3.64-12.01-22.79-13.25-13.85,7.36-4.8,17.81c-3.07-.03-9.35-2.98-9.07-5.48.39-3.62,1.26-9.9-.69-11.78s-6.22-4.02-10.33-6.16l15.81-1.26c-8.3-5.96-14.7-6.54-22.76-7.82l-10.4-1.65-16.7-2.64,11.76-7.9-10.17-2.68,20.87-2.21-26.84-18.94-2.43-12.87c-6.68-5.23-14.45-9.07-22.38-11.87l-3.12-2.79c-.69-.62-4.83-.72-5.13-.75l13.19-8.33c2.59-1.64,8.09-6.15,9.37-9.3l-11.13-6.18,34.47,1.59c7.63-1.25,15-12.74,21.05-17.55,6.23-4.95,11.46-9.83,14.81-15.78-15.36-7.2-28.94-2.71-41.98-5.75-18.53-4.31-36.9-3.96-54.01,2.37l1.38,4.54c.35,1.14-9.37.3-9.55,2.17l-.55,5.65-1.62,21.38c6.53,5.03,11.05,16.3,8.8,24.41-4.04,2.84-9.47,8.11-12.45,11.9-6.91,1.28-12.62,4.15-15.08,12.6-.61,2.09-1.26,6.91.37,7.92l6.49,4.05c-2.78,1.26-9.91,8.89-7.59,11.61,17.38,20.47,36.67,10.65,46.54,23.8.36,3.18-3.99,8.35-6.56,11.8-1.52,2,5.78,6.77,7.84,5.33l8.08-5.64c1.43-1,4.57,5.37,3.11,6.39l-6.35,4.47c-8.68,6.1-16.45,13.57-27.94,11.84-2.99,1.8-6.53,8.65-6,11.03,5.59,3.35,7.58,7.57,5.99,13.58l-8.85-5.06-12.23-.2,4.49-14.56,3.26-10.56-11.88,4.21-15.83-8.74-26.03,3.82,3.52,4.95c.39.54-2.02.33-2.62.43l-5.88,1.03,9.2,6.49-13.91,2.71c-8.29-.8-20.13-4.88-27.31-2.85-19.42,5.48-35.61,2.42-52.83-5.82-8.7.92-18.99.14-27.6-3.58l-20.2-8.73,3.93-4c2.53-2.57-10.57-12.44-31.41-4.41-16.03,6.17-27.82,1.71-35.33,16.36l14.8,4.97c5.32-8.15,14.79-6.56,23.91-7.01,5.83-2.11,13.12-11.88,22.2-6.1l-12.31,5.76c-7.56,3.54-16.97,5.37-25.89,5.69l-10.16,9.75c7.26,6.92,12.11,13.03,15.7,20.36l-7.41,6.88-10.21-10.53,8.02.71c3.51.31,1.28-11.91-19.53-12.34l-4.19-7.1c-8.05,3.82-14.92,1.63-20.89-4.7l-25.57,5.78c-27.61,3.53-54.01,1.13-80.11-3.84l10.11-8.49c6.61,1.86,14.55,1.28,19.11-4.74-11.01-11.08-27.83-18.59-43.05-15.51-5.14,1.04-8.53,2.24-13.8,1.62l-25.67-2.98c-14.14-6.17-28.7-9.53-44.46-10.8-18.94-10.14-39.19-14.29-60.26-10.86l-4.23,8.83c-6.63,1.41-15.16,1.84-20.08.54l-3.68-17.78c-11.01-1.69-20.53,6.91-22.2,18.59-13.94,1.29-26.9-8.24-31.47-21.5l-19.6-10.43c-1.73-.92-7.93,3.71-6.48,4.77l5.99,4.38c-14.19,4.57-16,19.83-26.19,11.32-12.74-1.36-24.47,4.79-32.45,13.05-2.79-1.89-6.62-2.85-9.84-2.61l-9.83.73c17.21-4.67,31.52-8.76,46.46-18.9-5.8-3.4-8.36-1.48-13.96.14-5.24,1.52-16.45.18-21.48,2.19l-17.54,7.01c-4.69,1.88-11.04,2.84-16.21,3.71-3.39,2.82-11.92,7.33-17.05,5.73-3.36-3.2-11.55-9.58-15.52-5.66-4.7,4.65-6.23,5.93-12.73,5.03-5.63-.78-9.3,2.56-13.51,5.42l-4.9,3.32c-1.04.7,1.14,3.19,2.21,3.83l4.94,2.97-16.47-1.66c-20.68-.75-39.43-7.07-55.49-17.79l-36.66-1.15.2,244.99,20.14.68c4.04-1.96,8.69-3.42,12.48-3.26,2.8.12,5.28,5.49,6.08,9.52l14.52,11.13c5.83,4.47,9.77,7.99,15.12,13.89l15.65-5.8c1.73-12.08,23.54-16.3,26.43-12.91l9.36,11c8.09,9.51,22.62,13.25,34.73,30.79l22.87,33.13,34.7,16.23-.77,24.98c-2.87,2.98-3.89,1.76-2.48-2.07-.38-6.79-.33-11.8.84-19.14-9.35-6.77-21.5-11.86-33.94-16.96-5.13-2.11-23.28-38.91-35.74-47.54l-15.27-10.57c-6.53-4.52-9.83-8.15-13.84-15.6-3.35-3.79-17.75-.87-20.32,4.02-3.76,7.16-8.64,8.96-15.4,11.48l-8.39,3.14c-1.8.67-3.13-6.03-4.81-7.28l-26.99-20.04c-.85-18.22-18.83,5.72-39.05-9.98l.04-243.09-34.93-11.21c-11.2-3.6-23.46-.84-35.23,1.13-8.62,1.45-17.61-2.79-26.39-3.45l-27.08-2.06c-15.39-1.17-30.54-8.21-45.99-7.74l-21.74.66c-14.72.45-26.64,1.73-38.04-9.88-9.21-4.11-26.82-1.11-38.52.63-3.62-3.44-7.91-7.86-11.3-8.32-11.26-1.52-12.41,11.65-23.19,5.62l11.36-5.82-23.44-7.73-18.25,11.68c-13.65,3.43-27.78,4.23-41.74,3.41-12.79,7.28-25.78,13.16-39.79,16.58-4.92-1.24-10.04-.54-13.5,1.84l-14.91,10.25c-5.39,23.85-34.44,20.74-60.58,22.49-2.42,6.75-6.82,13.16-12.72,14.91l14.19,5.86c14.05,5.8,28.11,9.79,41.33,16.76l3.84,11.56,37.69,3.91c-.09,2.35-.67,6.53.92,7.76l6.41,4.98-9.42-1.68-1.22.56.29,6.2,14.38-.99-13.17,6.62-38.85-1.93,1.65-12.66c-15.91.03-39.7,5.41-39.39,6.95l.94,4.72c-8.26-2.11-14.34-1.3-21.57,1.79l-27.21,11.66c12.46,6.63,23.49,7.64,35.54,9.4l-8.55,3.78,6.41,12.9c27.26,12.21,43.85-1.74,64.8,5.33,1.29-1.15,2.66-2.53,3.22-1.9l4.54,5.08c8.53-5.93,17.48-8.87,27.44-11.95l6.89-2.13c1.81-.56,3.84,2.84,4.91,5.94l-13.44,5.59c8.44,3.75,11.23,6.7,11.87,13.93.43,4.84-6.61,10.74-12.26,10.57l-16.89-.52c-20.99,20.65-24.87,3.36-41.55,6.9-6.13,1.3-8.29,12.14-11.96,16.11-4.7,5.08-11.34,11.42-15.38,16.82-2.7,2.14-6.54,6.84-7.61,10.1,6.05,3.08,9.83,9.17,13.47,12.19,2.42,2.01,10.47,2.78,11.34,5.54-2.86,4.54-5.89,8.43-8.25,10.93,8.99,5.26,17.57,11.29,25.57,17.14s27.11.71,32.16-8.03l11.27,15.61-4.16,10.26c2.54,2.01,5.87,4.22,5.09,5.67l-4.93,9.13c14.76,5.56,25.47-12.71,22.08,1.92,1.57-.38,5.47-3.84,6.71-5.99l2.77-4.85c1.21-2.12,3.44,3.97,17.96,4.56,4.54.19,16.58,16.99,17.2,10.56l.55-5.69.47-5.02c.48-5.13,9.28,7.02,13.42,5.79l18.22-5.41c-2.87,5.3-5.44,10.16-6.76,15.36l-4.03,15.82c-8.77,5-15.26,11.35-22.89,17.58-10.94,8.92-36.05,9-36.9,28.59-11.46-6.41-23.15-2.55-33.93,4.5l-23.78,15.55c-14.61-.37-26.15,3.18-34.96,15.32,6.51,4.19,10.8,1.43,16.78-1.29l21.32-4.12c.04-1.2-.4-4.01.49-4.29l6.31-1.96c3.95-1.23,7.98-1.25,11.22.39l10.01-5.98,7.59-13.13.13,8.87,13.01-2.05,2.61,6.42c.65,1.6,5.29-1.08,6.76-2.09l3.41-2.28c.71-.47-1.38-2.28-1.43-1.85-2.99.45-5.96,0-9.07-1.54l21.33-9.75.42,3.36.71,2.47c.23.79,1.83-1.83,2.63-3.2l19.62-7.83c1.37-.55,5.53-1.94,5.69-3.21l.75-5.86,17.73-8.21,21.77-10.16c.55-2.47,1.96-6.16,3.46-7.08l26.15-15.98c9.63-.58,15.48-5.74,19.45-14.79,5.15-.48,13.33-5.38,12.51-11.55-2.08-3.4-10.39-4.27-16.18-4.35,2.6-6.5,8.47-9.5,15.02-13.15l13.71-7.65c1.25-.7.93-5.47.5-7.2l12.66-9.72c10.09-7.76,19.68-19.12,39.47-16.94.12,1.38-.19,2.92.85,3.53l6.28,3.68-16.37-1.28-16.96,7.73c4.3,13.57-12.22,17.95-8.99,26.25.96,2.46,6.37,2.67,10.69,2.03.38.14,1.3,1.51.62,1.65l-5.9,1.2c-2.99.61-7.89,3.48-8.23,6.6,11.38,5.36,23.6.57,32.62-6.7,8.13-.17,14.11-3.88,19.08-11.06l12.86,1.21,17.32-1.76.93-.84-5.19-4.72.43-12.63c10.08-7.39,28.68-9.87,32.35-.31l11.45,2.05c-4.73,2.21-9.96,3.59-15.68,4.63l.46,3.65c.16,1.27,3.73,1.96,5.19,1.38l14.06-5.54c6.84,5.49,12.97,4.99,18.04.47l.17,3.26c.04.86,1.95,2.19,2.74,2.51l17.93,7.05c16.84-3.25,33.35-3.59,50.06,1.41,11.57,3.47,22.16,9.57,35.39-1.01,1.35,4.09.04,7.38-3.74,11.52,10.35,4.7,24.25,7.64,33.22,14.64,10.9,8.51,21.93,18.01,36.14,14.44l.87-.77,2.87-6.37c3.09,4.28,12.59,9.33,20.57,9.58l-8.55-25.61c-.24-.72.9-2.4,1.19-1.78l1.72,3.72,7.65,16.66c.13.29,1.41.76,1.65,1l5.41,5.35-5.31.52c-1.31.13-1.14-4.22-.99-4.85l-1.87-.92c.16,4.24,1.12,9.99,2.46,15.25l5.03,19.7,9.01-6.74c1.32-.99,3.95-3.79,3.53-5.29l-1.88-6.63c1-.62,8.31,2.66,8.62,5.25.27,2.26-.81,5.07-2.08,8.68l13.46,5.29-17.57-2.55c-4.53,6.02-13.5,2.82-10.4,9.07l2.23,4.49,1.86,14.17c3.76-3.12,6.04-8.19,7.04-11.89l17.73-.51.06,8.55c0,.35,1.37.33,1.87.57l10.68,5.24-2.58,5.19-9.3-9-1.15-1.02c-2.01-2.79-9-8.08-11.18-5.38l-7.69,9.5,9.73.57c-1.59,2.72-3.56,5.91-2.16,6.62l7.37,3.75-8.78,3.68,15.54,16.22,2.07-10.3,5.96,7.58c1.23,1.56,7.23-.87,7.49-2.81.61-4.49-4.23-13.77-6.76-16.29l9.76-2.36-2.44,8.86,12.54,10.47-1.23-9.74c6.04-.22,7.28,12.85,12.28,11.07l9.49-3.36c-4.31,6.45-6.14,12.56-1.02,19.42l-9.87-1.02,7.27,9.76c.48-.8-.97,1.6-3.11,5.2,5.24,3.97,15.34,7.86,21.28,10.9l4.89,2.51c.74.38-1.12,2.07-1.93,2.3l-3.63,1,6.82,7.32c1.26,1.35,4.55-1.9,5.79-2.95l1.65,7.65c.17.81,2.09-1.56,3.9-3.97l6.36,24.56,6.1-2.56c.66-.28,1.41,1.95,1.23,2.64s-1.4,4-1.37,4.72c.32,9.66,18.13,8.41,25.04,13.23,1.77,1.23-5.15,5.25-19.17-1.49-7.59-3.65-12.76-4.16-20.81-.65l9.75,11.48c3.03,3.57,4.19,4.71,9.72,6.63,6.88,2.39,13.12,10.35,19.02,14.31l18.12,12.15,9.92,1.43c.44,2.53,2.81,6.2,4.95,6.95l18.82,6.56c4.39,1.53,10.79.67,12.39-2.78-1.82-12.14-9.59-21.2-22.28-21.92l-15.49-19.09c10.9-1.39,11.45,13.29,20.24,15.7l-2.84-5.32c-.32-.59,2.36-1,2.83-.52l2.45,2.46c9.2,9.25,15.91,2.22,20.34,12.36,5.41,1.79,14.14.98,22.41.98h559.93c.16-4.92,2.25-9.71,4.4-9.42s6.13,3.56,6.81,5.68l3.37,10.51,20.08,5.45c10.17-5.11,18.81-1.78,25.56,4.67,13.08-.17,17.63,12.46,28.19,3.33l32.59,6.32,7.63-12.14c9.6,5.9,18.82-2.66,18.61-3.78l-1.14-6.27,24.69,4.71c3.44.66,12.08-.82,13.78,3.51,2.16,5.47,6.4,15.63,11.59,15.87l17.41.79c-1.14,6.84.84,11.49,5.37,15.05l-1.19,8.65c2.44,1.33,5.24,2.56,4.93,3.88l-1.32,5.61c4.53,1.25,8.72,3.82,12.28,7.64l27.78,3.89,38.22,5.42,19.59,26.14c-3.52.18-6.96.1-6.76,1.1l1.39,6.94c-24.46-3.71-24.58-20.91-32.59-16.67,3.49,4.8,7.91,12.7,5.51,15.63-15.78,19.21-3.85,24.83-13.3,32.94l-9.96,8.54ZM1654.47,86.77l12.53-7.56,24.12-5.68c2.56-.6,7.59-6.1,6.7-8.45l-3.1-8.21,4.8-5.39c.91-1.02-1.99-6.13-3.33-6.47-3.34-.84-9.85-.3-14.65.38-.99-1.98-2.78-7.35-5.35-7.46l-14.23-.6,19.28-8.59c-.04-.53-.71-3.8.22-4.68l6-5.72c-16.91-11.58-37.61,3.7-54.66-5.31l-15.52.27c-3.15,2.92-9.22,3.77-12.23,3.65-1.09-.04-1.31,3.31-.32,3.4l5.96.54-14.13,3.52c4.93,6.13,12.49,7.07,19.32,5.67l7.21,3.48-6.57,3.79c-1.24.72.96,4.67,1.59,6.09l-14.36,1.67c-5.78.67-11.58-12.47-23.52-8.89-2.97.89-7.81,5.72-8.06,9.14l13.42,9.19c6.77,4.64,11.63,5.35,20.19,6.44,21.25,2.7,38.29,32.06,48.69,25.78ZM2010.29,122.95c.1.03-2.63-.9-3.35-1.15-.61-.21-.2-1.21.43-3.12l46.34,5.8c2.23.28,7.87-3.66,7.77-5.84s-3.63-4.65-6.1-5.57l-5.41-2.02c-1.75-.65,3.27-5.19,4.87-4.6l8.52,3.13c5.83,4.55,11.32,5.71,20.1,5.49l-2.01,10.68,17.13-1.2-6.4,4.15,32.27,12.91c-4.96,6.86-24.14,3.32-21.37,9l2.95,6.05c1.73,3.54,17.2-9.29,33.89-6.83,2.58,6.24,9.3,10.48,14.53,11.43l5.22,5.77c1.02,1.12,4.14-1.45,5.38-2.11l10.49,5.25,15.87,22.8c-3.78,2.77-7.51,6.9-9.88,10.34l-7.21,5.14-25.5,15.86,18.77,16.1c-9.3.68-13.39.92-19.88,2.59-31.84,8.22-54.06-4.77-56.62.85l-2.82,6.18-11.61,5.13c-2.71,1.42-3.12,10-.89,12.16,7.26,7.04,36.91,13.51,48.62.95,4.89-5.25,17.65,11.43,32.78-2.69,1.95,2.68,4.25,6.72,6.06,6.27l7.12-1.75,5.12,5.91,17.72,10.9,19.64,5.88-12.63,4.77c4.98,3.93,10.73,6.71,17.28,9.16l11.32,4.23-8.69,1.6c3.89,6.39,12.07,9.82,18.95,4.5l-11.61-4.95,21.8.69c6.37,9.15,16.17,11.86,28.29,14.47l43.3,9.33c1.05.23,3.9-.26,4.53-.37,2.85-.51-5.02-4.54-4.61-4.99l3.94-4.32c-10.48-8.39-22.31-14.6-33.87-21.8l-24.6-15.33c8.76-3.06,14.94,1.75,22.23,6.39l.4-2.41c.94-5.62,15.55,13.41,38.42,15.39,5.36,2.06,12.91,6.6,17.47,9.53l8.3,5.31c1.59,1.02,6.1-4.28,5.42-4.97l-10.03-1.97c-1.92-.38-3.2-4.55-4.07-6.1,3.28-.62,7.82-3.15,6.96-5.14l-4.13-9.64,12.07,5.06.14-14.05c-6.04-.91-9.99-3.73-11.94-7.9l-7.44-4.42c3.2-2.06,6.16-4.76,4.64-5.87l-5.97-4.39c-3.77-2.78-8.97-5.92-13.72-6.55-24.75-3.25-21.55-30.48-38.56-18.46l.45-5.67c.15-1.88-7.16-4.46-6.79-4.84l2.71-2.74,9.98,7.43,9.25-7.03-15.92-10.43,12.44,1.88c1.89.28,4.06-4.45,4.95-6.01l18.73,11.99,9.66,4.71,7.65,11.17c5.4,7.88,11.23,8.35,18.46,10.51l19.57,5.85c-.13-8.44-.2-12.17-2.02-19.36l20.65-.22c1.04-6.02,2.16-7.87,7.92-12.38l-8.67-3.86,12.87-3.71,10.86-9.43-21.76-12.15-14.96,3.27v-7.47s-29.6-.63-29.6-.63l14.66-4.73-29.9-16.52c-5.82,3.41-14.22,5.17-20.35,1.3l-6.88.25c-.78-3.92-2.01-9.65-4.37-9.78l-10.28-.58-18.49-3.22,6.05-2.48c.69-.28.17-2.53-.54-2.65l-4.86-.81c.94-.63,3.5-2.57,3.23-3.96l-.96-4.83,30.07.52c-5.92-7.95-14.46-11.27-23.85-11.31l-24.49-.1,20.91-4.86,14.77,1.5c-2.02-11.12-13.73-16.88-22.9-18.86l-6.04,6.68-20.89-1.16,16.02-3c1.7-.32,4.88-3.1,4.77-4.69s-2.95-5.71-4.72-6.02l-26.08-4.69-10.35-1.57c-2.47-3.98-6.25-5.48-10.57-4.44l-23.19,5.56c4.95-8.89,25.62-4.35,21.96-10.49-4.1-6.88-26.9-15.21-37.6-9.92l-7.01,3.47c-2.62,1.29-7.03-8.88-17.43-10.35l-5.19-7.08c-1.42-1.94-8.89-.76-11.3-.36-1.43-5.6-6.78-11.98-13.79-12.49l-18.84-1.38c-14.38-1.05-27.03-4.28-40.33,3.35l3.86,4.47-10.84,3.48c-4.62-7.65-10.92-.61-19.71-6.57l-18.3,14.02.04-11.81,7.45-4.51c-3.53-1.46-5.7-1.88-5.55-2.86l.88-5.9c.67-4.47-9.14-9.57-12.96-11.57-1.03-5.85-3.53-11.96-10.59-12.35-11.93-.66-25.9-1.4-37.42,2.38l-29.8,9.77c-5.03,1.65-12.96,11.25-12.65,16.46.49,8.36,11.99,10,17.98,10.75l-20.15,5.77c6.41,11.07,14.58,11.92,23.28,13.89l-6.57,11.08-9.33-1.69,9.82-4.8c-12.92-5.92-21.21-10.13-29.9-17.67,2.77-4.36,4.33-8.43,2.38-9.93l-8.62-6.62c5.77-13.88,19.71-20.6,36.13-27.86-27.01-11.31-72.11-3.96-89.38,19.21l-9.6,12.88c-.8,1.07-2.3,2.92-1.57,3.58l3.01,2.71c-2.16,1.15-5.37,2.69-5.33,4.11l.18,6.57.78,14.52,38.63,3.89c4.17.42,9.02,3.84,12.11,7.28-7.28.44-11.81-.77-17.88-1.6l-24.21-3.3c-.58,13.91,22.73,24.33,35.51,23.43l20.58-1.44c10.93,9.49,23.55,9.32,37.62,10.22l49.25,3.12c1.95.12,7.72,3.31,9.04,1.98l5.1-5.14,11.27,3.99,1.64-1.74ZM1274.57,123.91c10.79,10.8,24.69,18.23,39.48,18.62l35.09.93c1.52.04,5.54,3.09,5.54,4.42v6.32c.61,4.6,9.84,10.6,14.8,10.31l28.65-1.67,17.82-.13,19.66-2.79,20.91-6.52c15.24-2.73,30.26-2.77,40.87-15.95,3.72,17.47,21.33,1.59,29.29,16.11l21.32.87c16.47.67,32.84,2.31,48.35-7.98-4.2-5.25-13.52-12.6-18.59-12.66l-8.67,9.34c.32-3.98,1.24-6.27.1-7.11l-5.29-3.9,10.6,2.02,8.93-8.18,8.1,5.99c2.68-2.28,7.31-4.52,8.03-2.51l3.09,8.66,9.19-9.03-2.11-12.71-9.13,1.12-31.76-12.17c-6.6-2.53-19.7-3.71-30.56-16.12l3.02-9.71c.62-1.99-4.6-5.26-5.72-7.14l-13.5-22.68-7.93-11.86,8.57,3.17,13.68-16.91c-7.32-12.19-35.54-11.59-50.38-2.22,9.39,4.48,17.14,6.88,22.7,13.38l-16.9-6.1-19.96-1.61c-3.17-.25-8.92-.09-9.38,2.45s.46,7.04,1.43,9.96l7.77,23.37c.47,1.42,5.61,4.62,4.46,5.46l-4.58,3.31c-1.18.85-4.86,2.49-5.81,1.4l-4.49-5.19c-3.94-4.56-5.88-10.38-6.25-16.91-12.3-8.04-26.35-13.76-42.14-14.47,2.14,5.15,6.07,7.43,11.32,10.36l-26.03,7.12,4.1-6.91c.58-.97-3.51-3.86-4.78-4.14l-32.79-7.16-6.74,8.47-18.32,1.56c5.69-3.36,8.55-5.75,9.03-11.15.29-3.31-5.17-8.96-9.48-8.42-27.55,3.43-64,12.41-84.9,27.97l5.45,4.62c1.76,1.5-20.46,4.83-17.61,17.4l19.6,1.37c.65.05,1.77,1.29,1.41,1.82l-3.22,4.66,24.34-1.93,17.51.05-40.79,7.88c-1.9.37-6.53,5.15-5.26,6.46,6.57,6.78,21.76,10.37,34.13,9.65l56.04-3.27c14.24-.83,29.66,5.21,42.44,9.39-14.14,1.98-26.75.89-40.35-.09-22.61-1.62-44.1,1.56-66.63,4.67-2.13.29-6.77,4.71-6.81,6.66ZM2111.2,39.82c-14.63-19.17-34.62-23.23-57.45-22.35l-36.65-2.47-.75,13.45c9.63.02,11.54,2.71,14.81,8.45,5.03,8.83,17.38,9,26.18,6.63,27.68-7.45,41.86,4.34,53.86-3.7ZM1697.11,36.81c-.1-2.04-5.79-3.57-7.79-3.25s-5.9,4.1-4.86,5.83,6.47,3.07,8.53,3.15c1.62.06,4.23-3.51,4.13-5.73ZM1614.08,104.85c-1.19.25,1.58,3.83,2.71,3.41l3.21-1.21c.75-.28-.38-3.34-1.15-3.18l-4.77.98ZM1902.69,120.66c-6.07-6.4-14.94-6.89-21.39-1.39l21.39,1.39ZM2011.56,123.42l-1.74,1.41,14.81,6.85c7.24,3.35,18.43,4.67,20.37-5.4-12.67,1.88-23.95.64-33.43-2.86ZM1693.67,166.32l26.63-11.65c-10.82-1.04-16.7-7.02-17.25-15.48-.09-1.36-.94-5.88-2.08-5.15l-5.09,3.29-14.22-7.81c-5.19-2.85-14.78-4.83-18.63-1.78-.74.58.9,5.2-.01,5.43l-5.46,1.37c-1.79.45-1.11,4.3-.47,7.11l-18.36,4.52c-1.44.35-.74,6.72.74,6.71l4.67-.03,49.53,13.49ZM2072.89,128.92l-10.94,3.92c4,4.73,11.52,2.72,10.94-3.92ZM1718.61,134.37l-11.77-.1,6.32,5.54c1.08.95,4.88-3.08,5.46-5.44ZM2102.78,136.83c-5.07-.38-11.06.26-15.76,2.05,5.28,5.84,12.65,5.65,15.76-2.05ZM2061.72,149.73l9.46-10.52c-3.67-.62-9.4-.89-11.23.73l-11.56,10.22c3.83,3.55,10.41,2.8,13.32-.44ZM1628.27,148.64c-8.24-3.07-9.39-1.55-12.78,2.41-2.38,2.79-.29,6.33,4.01,9.01l8.76-11.43ZM1596.53,156.55l-9.23-2.74c-1.75-.52-4.6,3.02-4.75,5.63,4.51,1.64,9.98.66,13.98-2.9ZM2141.29,162.65c-.22-4.77-10.03-8.51-14.11-4.75,1.26,2.63,4.59,6.28,6.55,7.41,1.61.93,7.59-.78,7.56-2.66ZM1541.33,162.42l-13.79-1.96c3.15,6.32,9.31,9.41,13.79,1.96ZM2065.18,162.95l-3.99-4.47-5.02,4.46c-.75.67,2.25,3.31,3.15,2.88l5.86-2.87ZM2050.98,166.6l-.23,5.08,7.96.36.23-5.08-7.96-.36ZM2135.47,188.12l-.19-19.83-28.53-1.24c-6.08-.26-20.91,14.16-14.53,23.8,5.53,8.36,34.42,7.85,43.25-2.72ZM2168.35,181.98c.06-7.22-3.63-9.45-8.23-9.77l-14.26-.99c-1.9-.13-6.73,3.55-5.86,5.18.7,1.32,3.72,4.89,5.2,4.93l23.15.65ZM368.38,212.64l-6.49-8.06c-.47-.59-4.2-.63-4.44.11l-1.28,3.97,10.75,5.03,1.46-1.05ZM1973.05,284.24c6.16-.4,9.04-.37,9.82,1.05l2.69,4.91,28.85,6.5,18.02-7.9-12.62-10.03-19.65,1.15c3.83-9.8-3.1-14.68-10.28-17.82l-27.62-12.06-13.54-4.44-5.85-3.52c-1.27-.76-4.19,2.33-5.67,3.65-.9.8-5.25,1-5.54-.18l-1.15-4.69c-.75-3.06,8.97,1.17,13.53-3.64l-10.94-10.64-.31,6.38c-.05.94-1.16,2.61-1.37,2.8-2.46-2.6-4.83-5.48-6.72-5.5-5.03-.05-13.29,3.82-15.43,13.07l-6.29,27.11,2.29,7.26-15.06,7.99c-1.53.81-4.08,7.04-2.37,7.38,1.28.26,4.41.56,5.81.41l25.83-2.79,1.35,14.13c12.13,4.03,19.59-3.05,28.23-10.04l11.98-6.71c1.1-5.53,2.39-6.97,7.58-8.84l4.41,5.01ZM233.65,301.18l-2.2-3.85c-11.81,3.52-21.11-6.37-31.6-8.39-7.92-1.53-18.08,5.52-26.07-3.22-2.06,2.64-4.12,6.75-3.34,8.86,3.1,8.39,16.73-3.78,31.63,5l13.19,7.77c8.29-7.3,19.58-4.1,18.39-6.17ZM2108.64,298.63c-3.28-10.28-11-9.4-17.71-6.51,5.58,3.87,11.45,6.17,17.71,6.51ZM2088.99,301.43c-5.82-7.24-12.94-8.38-22.12-4.76l9.79,8.23c2.23,1.88,9.98-.59,12.32-3.47ZM1986.61,324.02l12.64-9.71c-7.18-9.43-15.63-3.07-23.6-3.25-7.26-.17-10.45.1-15,5.91-2.21,2.83-4.53,6.57-3.28,8.7,3.39,5.77,17.52,7.36,29.25-1.65ZM2157.66,316.99c-1.62-2.33-6.74-3.43-7.33-1.97,1.63,2.32,6.75,3.43,7.33,1.97ZM2051.03,328.69c-1.05-5.09-10.48-7.17-13.78-4.76s-7.14,8.41-6.68,12.53c.4,3.56,7.76,8.71,11.45,8.59,4.75-2.37,10.12-10.95,9.01-16.35ZM2347.62,337.78c-.67-5.19-7.85-4.93-7.84-.77l7.84.77ZM2351.23,342.03c-3.87-1.93-13.37-2.99-18.32-.71l12.42,7.34c1.41.83,4.82.34,6.19-.45,1.03-.6.77-5.64-.29-6.18ZM161.85,375.25l-13.91-5.54c2.87,6.55,8.91,7.54,13.91,5.54ZM2289.58,373.38c-3.82-6.6-9.49-4.45-10.57-1.78l-2.89,7.12,13.46-5.34ZM293.92,387.99l-3.22-12.5c-5.31-.49-11.7-1.01-15.21-.22l-18.79,4.22c9.2,8.62,23.75,14.45,37.22,8.49ZM652.4,373.8l-2.8,8.41,3.6,1.2,2.8-8.41-3.6-1.2ZM651.54,389.03l-.89,4.89c10.3.47,10.66-8.45,18.76-12.1,1.19-.54-2.62-4.58-3.65-3.77l-12.58,9.88-1.65,1.09ZM511.49,478.57l14.97.98c5.75-17.35,20.36-13.1,24.58-22.12,5.4.12,12.55-3.79,14.12-8.64l-11.46-10.94,18.9-4.58-14.43-9.72-15.87,12.3,4.32,3.66-12.16,1.52c-2.55.32-2.71,7.5-2.91,9.23l-4.56-3.92c-.93-.8-11.44,3.96-14.79,12.19l14.42,16.61c-7.43.61-11.8.96-15.13,3.42ZM887.43,429.37l-1.4,1.45-9.86,5.86,13.98,16.71c.78.93.64,5.95.75,7.16.07.8,2.93-.29,3.47-.89l3.36-3.7,3.1,9.26,13.44,17.28c3.4-12.43-1.02-20.98-4.5-31.28l-2.18-15.84-20.15-6.01ZM2054.93,477.94l-.3,8.68,11.64-12.73-13.85-5.82-16.88,8.42c1.13.67,3.62,1.58,4.73,1.31l4.61-1.11-7.73,8.23c.92,1.43,9.6,3.42,11.34,1.2l6.43-8.18ZM403.73,519.61l5.07-6.46c.66-.84-2.47-3.18-3.05-2.39l-4.35,5.85c-.59.79,2.13,3.26,2.33,3ZM413.06,511.24l-2.12,3.53,7.06,4.24,2.12-3.53-7.06-4.24ZM981.66,576.48c-5.63-4.8-10.34-10.53-7.93-19.02-8.08-6.27-6.38-16.37.09-26.32-10.88,1.29-17.13.55-29.03-1.73-3.23,15.84,8.22,20.09,8.25,19.65l-.28,4.79,28.48,28.84c.66.14,4.08-3.09,3.38-3.69l-2.96-2.52ZM247.83,559.79c12.41-.72,20.53-4.47,28.65-9.29,1.72-4.83,4.35-7.68,7.91-9.58l8.11-4.33c-7.72-1.1-12.02,2.65-16.9,6.36l-15.52.31,1.18,9.48c-5.34,2.14-9.42,4.07-13.43,7.06ZM2022.71,565.62c-1.17-11.91-7.5-12.78-12.11-13.43-6.54-.92-12.45-.12-16.32,5.82l28.43,7.62ZM246.46,557.35c-2.45-2.29-5.95-4.73-7.3-3.84l-5.94,3.9c-5.15,3.38-9.7,7.54-10.79,13.58l24.04-13.64ZM206.97,566.44l-7.25,4.8,6.34.14c1.1.02,1.15-2.91.92-4.94ZM127.98,583.65l-2.97-5.74c-.38-.73-2.4,1.81-3.37,2.37l-13.82,8.02c7.15.47,14.61-1.7,20.16-4.66ZM2050.99,578.45l-7.26,4.77,6.32.16c1.02.03,1.15-2.94.93-4.93ZM85.04,593.63c2.24-1.47,3.43-6.84,1.95-7.26-2.33,1.5-3.47,6.78-1.95,7.26ZM144,586.63l-16.26-.27c5.51,3.6,10.98,3.47,16.26.27ZM58.56,593.02l-10.03-2.7c1.22,3.59,2.58,8.03,4.23,7.33s5.53-3.78,5.8-4.62ZM68.73,589.03l-8.11,5.04,2.64,4.25,8.11-5.04-2.64-4.25ZM82.73,596.08l-6.82-7.43-6.42,10.24,13.24-2.81ZM2578.59,712.88c7.82-1.05,12.23-1.59,13.04-3.87l3.05-8.58c2.28-6.4,3.92-10.65,2.04-16.99l-9.44,7.22,4.55-16.74-16.11,14c-.05-4.86,3.56-13.76,7.37-15.86l6.44-3.55c1.39-.77-.1-7.09-.34-5.76l-12.54,2.87c-1.12-4.8-2.46-7.95-1.4-9.35l5.24-6.89c-4.21-12.69-19.16-.93-22.5-13.05l-6.26,8.8-13.83-5.07c-1.36-.5-4.97-3.8-3.87-4.6l6.31-4.57-13.54-4.21-11.73,7.61,21.62-30.65-4.93-5.38,8.93-2c1.79-.4,2.52-4.8,2.66-5.73-17.12-2.91-27.72,3.64-35,15.89l-19.4,32.62c-2.91,4.9-4.14,8.56-3.85,13.75-5.42-.89-9.26,4.28-10.58,9.78l-10.3,1.99-.14,2.43,14.46-.13-17.6,15.18,2.32,6.48c.64,1.79,6.64,1.76,8.6,1.46,10.13-1.57,19.13-.89,28.98-.79l23.69.23,15.3,4.12c.66-3.14.76-5.88,1.9-5.54l8.16,2.44-11.01,8.22-10.43,7.31,16.27,1.21,8.54-11.46c7.54-1.73,10.66-4.63,13.8-11.98,9.93,5.97-1.14,13.24-1.45,25.58l11.88-6.73,1.1,10.28ZM2415.22,652c-17.39-14.02-38.76-21.4-60.89-18.99l24.04,13.85c10.24,5.9,24.89,8.15,36.85,5.14ZM1856.82,675.71l-10.88,6.53,1.76,2.94,10.88-6.53-1.76-2.94ZM2396.1,727.09l9.91-11.25c-21,.89-40.4,2.7-40.69-13.98l-8.29,8.52c16.8,16.24,24.6,10.59,30.65,15.9,2.52,2.21,6.82,2.62,8.42.81ZM1994.43,730.73l-28.41.11,26.4,9.02c2.35.8,5.52,1.64,6.52.32,1.09-1.43,3.08-4.92,2.17-6.27-.73-1.08-4.98-3.19-6.68-3.18ZM1336.57,1135.11c-3.46-6.95-5.16-8.54-9.76-11.97.43,5.76,4.64,11.32,9.76,11.97ZM1226.6,1138.13c1.78-5,.1-7.31-2.6-7.88l2.6,7.88ZM1290.17,1158.94l1.75-8.97c-2.96,2.41-4.5,6.36-1.75,8.97ZM425.97,1294.89c-1.7.46,1.82,6.13,3.45,5.47l4.41-1.77c1.23-.5.32-5.89-1-5.54l-6.87,1.84ZM465.99,1312.64l-5.27-8.19c-.74-1.15-4.75,1.5-6.74,2.72,2.59,3.74,6.1,5.49,12.01,5.47ZM483.78,1317.82c-2.37-3.39-7.89-5.84-10.52-.9l10.52.9ZM500.66,1324.07l-17.24-5.81,7.36,8.72c1.45,1.72,7.38-.45,9.88-2.91ZM512.14,1360.34l12.2-6.56c-4.34-10.99-13.68-16.96-23.19-18.26l-1.92,11.34c-.68,4.03,1.52,11.78,3.08,17.49,1.9-.31,7.52-2.77,9.83-4.01Z"/>
  <path d="M233.65,301.18c1.18,2.07-10.1-1.13-18.39,6.17l-13.19-7.77c-14.9-8.78-28.53,3.39-31.63-5-.78-2.12,1.28-6.22,3.34-8.86,7.99,8.74,18.15,1.69,26.07,3.22,10.49,2.03,19.79,11.92,31.6,8.39l2.2,3.85Z"/>
  <path d="M247.83,559.79c4.01-2.99,8.09-4.91,13.43-7.06l-1.18-9.48,15.52-.31c4.88-3.71,9.18-7.46,16.9-6.36l-8.11,4.33c-3.56,1.9-6.19,4.75-7.91,9.58-8.11,4.82-16.24,8.57-28.65,9.29Z"/>
  <path d="M246.46,557.35l-24.04,13.64c1.09-6.04,5.65-10.2,10.79-13.58l5.94-3.9c1.36-.89,4.86,1.55,7.3,3.84Z"/>
  <path d="M127.98,583.65c-5.54,2.95-13,5.13-20.16,4.66l13.82-8.02c.97-.56,2.99-3.11,3.37-2.37l2.97,5.74Z"/>
  <polygon points="82.73 596.08 69.49 598.89 75.91 588.65 82.73 596.08"/>
  <path d="M58.56,593.02c-.27.85-4.09,3.89-5.8,4.62s-3.01-3.74-4.23-7.33l10.03,2.7Z"/>
  <path d="M144,586.63c-5.28,3.2-10.76,3.33-16.26-.27l16.26.27Z"/>
  <path d="M161.85,375.25c-5,2-11.04,1.01-13.91-5.54l13.91,5.54Z"/>
  <rect x="61.22" y="591.17" width="9.55" height="5" transform="translate(-303.33 124.2) rotate(-31.85)"/>
  <path d="M403.73,519.61c-.19.26-2.92-2.21-2.33-3l4.35-5.85c.59-.79,3.71,1.55,3.05,2.39l-5.07,6.46Z"/>
  <rect x="413.47" y="511" width="4.12" height="8.23" transform="translate(-239.97 606.41) rotate(-59.04)"/>
  <path d="M85.04,593.63c-1.52-.48-.38-5.76,1.95-7.26,1.48.42.3,5.79-1.95,7.26Z"/>
  <path d="M206.97,566.44c.23,2.03.19,4.96-.92,4.94l-6.34-.14,7.25-4.8Z"/>
  <path d="M1226.6,1138.13l-2.6-7.88c2.7.57,4.37,2.88,2.6,7.88Z"/>
  <path d="M1290.17,1158.94c-2.76-2.61-1.21-6.56,1.75-8.97l-1.75,8.97Z"/>
  <g>
    <path d="M511.49,478.57c3.33-2.47,7.7-2.81,15.13-3.42l-14.42-16.61c3.35-8.23,13.86-12.98,14.79-12.19l4.56,3.92c.2-1.73.37-8.91,2.91-9.23l12.16-1.52-4.32-3.66,15.87-12.3,14.43,9.72-18.9,4.58,11.46,10.94c-1.56,4.85-8.71,8.76-14.12,8.64-4.23,9.02-18.83,4.77-24.58,22.12l-14.97-.98Z"/>
    <path d="M293.92,387.99c-13.47,5.96-28.02.12-37.22-8.49l18.79-4.22c3.51-.79,9.89-.26,15.21.22l3.22,12.5Z"/>
    <path d="M2351.23,342.03c1.07.53,1.32,5.58.29,6.18-1.37.8-4.79,1.29-6.19.45l-12.42-7.34c4.95-2.28,14.45-1.22,18.32.71Z"/>
    <g>
      <path d="M2578.59,712.88l-1.1-10.28-11.88,6.73c.31-12.34,11.39-19.61,1.45-25.58-3.14,7.35-6.26,10.25-13.8,11.98l-8.54,11.46-16.27-1.21,10.43-7.31,11.01-8.22-8.16-2.44c-1.14-.34-1.24,2.4-1.9,5.54l-15.3-4.12-23.69-.23c-9.85-.1-18.85-.78-28.98.79-1.95.3-7.96.33-8.6-1.46l-2.32-6.48,17.6-15.18-14.46.13.14-2.43,10.3-1.99c1.32-5.5,5.16-10.67,10.58-9.78-.3-5.19.93-8.86,3.85-13.75l19.4-32.62c7.28-12.25,17.88-18.8,35-15.89-.14.92-.87,5.33-2.66,5.73l-8.93,2,4.93,5.38-21.62,30.65,11.73-7.61,13.54,4.21-6.31,4.57c-1.1.8,2.51,4.1,3.87,4.6l13.83,5.07,6.26-8.8c3.34,12.13,18.29.36,22.5,13.05l-5.24,6.89c-1.06,1.4.28,4.55,1.4,9.35l12.54-2.87c.24-1.33,1.73,4.99.34,5.76l-6.44,3.55c-3.81,2.1-7.42,11.01-7.37,15.86l16.11-14-4.55,16.74,9.44-7.22c1.88,6.33.24,10.59-2.04,16.99l-3.05,8.58c-.81,2.27-5.21,2.82-13.04,3.87Z"/>
      <path d="M981.66,576.48l2.96,2.52c.7.6-2.72,3.83-3.38,3.69l-28.48-28.84.28-4.79c-.03.44-11.48-3.81-8.25-19.65,11.91,2.29,18.15,3.02,29.03,1.73-6.47,9.95-8.18,20.05-.09,26.32-2.4,8.49,2.31,14.22,7.93,19.02Z"/>
      <path d="M2415.22,652c-11.96,3.01-26.61.75-36.85-5.14l-24.04-13.85c22.13-2.41,43.5,4.97,60.89,18.99Z"/>
      <path d="M2396.1,727.09c-1.6,1.81-5.9,1.4-8.42-.81-6.05-5.31-13.85.33-30.65-15.9l8.29-8.52c.29,16.68,19.69,14.86,40.69,13.98l-9.91,11.25Z"/>
      <path d="M1994.43,730.73c1.69,0,5.95,2.1,6.68,3.18.91,1.35-1.07,4.84-2.17,6.27-1,1.31-4.18.48-6.52-.32l-26.4-9.02,28.41-.11Z"/>
      <path d="M1336.57,1135.11c-5.12-.65-9.33-6.22-9.76-11.97,4.6,3.43,6.3,5.02,9.76,11.97Z"/>
      <rect x="1845.92" y="678.73" width="12.69" height="3.43" transform="translate(-86.1233 1049.95) rotate(-30.9638)"/>
      <rect x="648.37" y="376.71" width="8.86" height="3.79" transform="translate(87.19 878.18) rotate(-71.57)"/>
      <path class="cls-1" d="M2455.95,542.67l-4.99,1.19c-.81.19-2.56-2.47-2.05-3.12.78-.98,3.31-3.12,4.71-3.47l16.71-4.22c-1.91,4.48-8.25,8.16-14.38,9.62Z"/>
      <path class="cls-1" d="M2370.03,745.26l-10.35,2.51c.53-4.97,7.23-4.92,10.35-2.51Z"/>
      <rect class="cls-1" x="2428.01" y="729.94" width="8.57" height="3.77" transform="translate(-29.901 1355.695) rotate(-30.9638)"/>
      <path class="cls-1" d="M1828.08,1109.73l-12.25.47,4.08-5.34c.96-1.26,4.05,1.65,8.17,4.87Z"/>
    </g>
    <g>
      <path d="M2249.79,701.89c-3.73,3.08-7.78,7.11-9.64,12.46l-4.8,13.82-11.57,15.12-8.48.99c-1.49.17-2.48,3.3-2.94,5.86l-32.39.88-19.89-1.25c-32.92-2.08-34.15,20.57-55.81,24.48l-4.57,6.2c-20.55-4.64-49.23-1.75-58.87,15.22l11.01,2.55c2.23.52,3.61,6.57,3.55,8.56-22.3-.92-27.24,8.4-34.02,6.59-10.17-2.73-16.22,1.51-23.98,6.13l-8.95,5.32c-5.7,3.39-15.19,4.3-16.72-3.25,2.55-1.36,6.67-2.48,11.58-2.6l.7-12.96,9.96-8.54c9.46-8.11-2.48-13.72,13.3-32.94,2.4-2.93-2.02-10.83-5.51-15.63,8-4.24,8.12,12.96,32.59,16.67l-1.39-6.94c-.2-1.01,3.23-.93,6.76-1.1l-19.59-26.14-38.22-5.42-27.78-3.89c-3.56-3.82-7.75-6.39-12.28-7.64l1.32-5.61c.31-1.32-2.49-2.56-4.93-3.88l1.19-8.65c-4.53-3.56-6.51-8.21-5.37-15.05l-17.41-.79c-5.2-.24-9.43-10.4-11.59-15.87-1.71-4.33-10.35-2.85-13.78-3.51l-24.69-4.71,1.14,6.27c.2,1.12-9.01,9.68-18.61,3.78l-7.63,12.14-32.59-6.32c-10.56,9.13-15.11-3.5-28.19-3.33-6.75-6.45-15.39-9.78-25.56-4.67l-20.08-5.45-3.37-10.51c-.68-2.12-4.66-5.38-6.81-5.68s-4.25,4.49-4.4,9.41h-559.93c-8.27.01-17,.82-22.41-.97-4.43-10.14-11.14-3.12-20.34-12.36l-2.45-2.46c-.47-.47-3.14-.07-2.83.52l2.84,5.32c-8.79-2.41-9.34-17.08-20.24-15.7l15.49,19.09c12.68.72,20.45,9.78,22.28,21.92-1.6,3.45-8,4.31-12.39,2.78l-18.82-6.56c-2.14-.75-4.51-4.41-4.95-6.95l-9.92-1.43-18.12-12.15c-5.91-3.96-12.14-11.92-19.02-14.31-5.54-1.93-6.7-3.06-9.72-6.63l-9.75-11.48c8.05-3.51,13.22-3,20.81.65,14.02,6.73,20.93,2.72,19.17,1.49-6.91-4.82-24.72-3.57-25.04-13.23-.02-.72,1.19-4.03,1.37-4.72s-.57-2.92-1.23-2.64l-6.1,2.56-6.36-24.56c-1.81,2.41-3.73,4.78-3.9,3.97l-1.65-7.65c-1.23,1.05-4.53,4.29-5.79,2.95l-6.82-7.32,3.63-1c.81-.22,2.67-1.92,1.93-2.3l-4.89-2.51c-5.94-3.04-16.04-6.93-21.28-10.9,2.14-3.6,3.59-6.01,3.11-5.2l-7.27-9.76,9.87,1.02c-5.13-6.86-3.29-12.97,1.02-19.42l-9.49,3.36c-5,1.77-6.24-11.29-12.28-11.07l1.23,9.74-12.54-10.47,2.44-8.86-9.76,2.36c2.52,2.51,7.37,11.8,6.76,16.29-.26,1.94-6.27,4.37-7.49,2.81l-5.96-7.58-2.07,10.3-15.54-16.22,8.78-3.68-7.37-3.75c-1.4-.71.56-3.9,2.16-6.62l-9.73-.57,7.69-9.5c2.18-2.7,9.16,2.59,11.18,5.38l.48-.99-.06-8.55-17.73.51c-1,3.7-3.28,8.77-7.04,11.89l-1.86-14.17-2.23-4.49c-3.11-6.26,5.86-3.06,10.4-9.07l17.57,2.55-13.46-5.29c1.27-3.61,2.35-6.42,2.08-8.68-.31-2.59-7.62-5.87-8.62-5.25l1.88,6.63c.42,1.49-2.21,4.3-3.53,5.29l-9.01,6.74-5.03-19.7c-1.34-5.26-2.3-11.01-2.46-15.25l1.1-1.1-7.65-16.66-1.72-3.72c-.29-.62-1.43,1.06-1.19,1.78l8.55,25.61c-7.98-.25-17.48-5.3-20.57-9.58l-2.87,6.37,1.65.49,20.15,6.01,2.18,15.84c3.48,10.3,7.9,18.85,4.5,31.28l-13.44-17.28-3.1-9.26-3.36,3.7c-.54.6-3.4,1.69-3.47.89-.11-1.21.03-6.23-.75-7.16l-13.98-16.71,9.86-5.86-1.12-1.17c-14.21,3.56-25.24-5.93-36.14-14.44-8.97-7-22.87-9.94-33.22-14.64,3.78-4.14,5.09-7.43,3.74-11.52-13.23,10.58-23.83,4.48-35.39,1.01-16.71-5.01-33.22-4.66-50.06-1.41l-17.93-7.05c-.79-.31-2.7-1.65-2.74-2.51l-.17-3.26c-5.07,4.52-11.2,5.02-18.04-.47l-14.06,5.54c-1.46.58-5.03-.11-5.19-1.38l-.46-3.65c5.72-1.04,10.95-2.43,15.68-4.63l-11.45-2.05c-3.67-9.56-22.26-7.08-32.35.31l-.43,12.63,5.19,4.72,1.3,1.07,12.58-9.88c1.03-.81,4.84,3.23,3.65,3.77-8.11,3.65-8.47,12.56-18.76,12.1l.89-4.89-.58-1.33-17.32,1.76-12.86-1.21c-4.97,7.17-10.96,10.88-19.08,11.06-9.03,7.27-21.24,12.06-32.62,6.7.34-3.13,5.25-6,8.23-6.6l5.9-1.2c.68-.14-.25-1.51-.62-1.65-4.32.64-9.73.43-10.69-2.03-3.23-8.3,13.29-12.69,8.99-26.25l16.96-7.73,16.37,1.28-6.28-3.68c-1.04-.61-.73-2.15-.85-3.53-19.8-2.18-29.38,9.18-39.47,16.94l-12.66,9.72c.43,1.73.75,6.51-.5,7.2l-13.71,7.65c-6.55,3.65-12.42,6.65-15.02,13.15,5.78.08,14.1.95,16.18,4.35.82,6.17-7.35,11.07-12.51,11.55-3.97,9.05-9.83,14.21-19.45,14.79l-26.15,15.98c-1.5.92-2.91,4.61-3.46,7.08l-21.77,10.16-17.73,8.21-.75,5.86c-.16,1.27-4.32,2.66-5.69,3.21l-19.62,7.83c-.8,1.37-2.4,4-2.63,3.2l-.71-2.47-.42-3.36-21.33,9.75c3.11,1.55,6.08,1.99,9.07,1.54.05-.42,2.14,1.38,1.43,1.85l-3.41,2.28c-1.47,1.01-6.11,3.69-6.76,2.09l-2.61-6.42-13.01,2.05-.13-8.87-7.59,13.13-10.01,5.98c-3.24-1.64-7.28-1.62-11.22-.39l-6.31,1.96c-.89.28-.45,3.09-.49,4.29l-21.32,4.12c-5.98,2.73-10.27,5.49-16.78,1.29,8.81-12.13,20.35-15.69,34.96-15.32l23.78-15.55c10.78-7.05,22.47-10.9,33.93-4.5.85-19.59,25.96-19.66,36.9-28.59,7.64-6.23,14.13-12.58,22.89-17.58l4.03-15.82c1.32-5.2,3.89-10.06,6.76-15.36l-18.22,5.41c-4.15,1.23-12.95-10.92-13.42-5.79l-.47,5.02-.55,5.69c-.62,6.43-12.65-10.37-17.2-10.56-14.52-.6-16.75-6.69-17.96-4.56l-2.77,4.85c-1.23,2.15-5.13,5.62-6.71,5.99,3.4-14.63-7.32,3.64-22.08-1.92l4.93-9.13c.78-1.45-2.55-3.66-5.09-5.67l4.16-10.26-11.27-15.61c-5.05,8.73-23.83,14.11-32.16,8.03s-16.59-11.88-25.57-17.14c2.36-2.51,5.39-6.4,8.25-10.93-.87-2.76-8.92-3.53-11.34-5.54-3.64-3.02-7.42-9.1-13.47-12.19,1.07-3.26,4.91-7.96,7.61-10.1,4.04-5.4,10.69-11.73,15.38-16.82,3.67-3.97,5.83-14.81,11.96-16.11,16.68-3.54,20.57,13.75,41.55-6.9l16.89.52c5.64.17,12.69-5.73,12.26-10.57-.64-7.23-3.43-10.18-11.87-13.93l13.44-5.59c-1.08-3.1-3.11-6.5-4.91-5.94l-6.89,2.13c-9.96,3.08-18.91,6.01-27.44,11.95l-4.54-5.08c-.56-.62-1.93.75-3.22,1.9-20.96-7.07-37.54,6.88-64.8-5.33l-6.41-12.9,8.55-3.78c-12.05-1.76-23.08-2.77-35.54-9.4l27.21-11.66c7.23-3.1,13.31-3.91,21.57-1.79l-.94-4.72c-.31-1.54,23.48-6.93,39.39-6.95l-1.65,12.66,38.85,1.93,13.17-6.62-14.38.99-.29-6.2c-.44-.76-.54-1.12-.88-1.28l-10.75-5.03,1.28-3.97c.24-.74,3.97-.7,4.44-.11l6.49,8.06.64,1.78,9.42,1.68-6.41-4.98c-1.59-1.23-1.01-5.4-.92-7.76l-37.69-3.91-3.84-11.56c-13.22-6.97-27.28-10.96-41.33-16.76l-14.19-5.86c5.9-1.76,10.3-8.16,12.72-14.91,26.14-1.75,55.19,1.36,60.58-22.49l14.91-10.25c3.47-2.38,8.58-3.08,13.5-1.84,14.02-3.42,27-9.3,39.79-16.58,13.96.82,28.08.02,41.74-3.41l18.25-11.68,23.44,7.73-11.36,5.82c10.78,6.03,11.94-7.14,23.19-5.62,3.39.46,7.68,4.87,11.3,8.32,11.7-1.74,29.31-4.74,38.52-.63,11.41,11.61,23.32,10.33,38.04,9.88l21.74-.66c15.45-.47,30.61,6.57,45.99,7.74l27.08,2.06c8.78.67,17.77,4.9,26.39,3.45,11.78-1.98,24.03-4.73,35.23-1.13l34.93,11.21-.04,243.09c20.22,15.7,38.2-8.24,39.05,9.98l26.99,20.04c1.68,1.25,3.01,7.95,4.81,7.28l8.39-3.14c6.76-2.53,11.64-4.32,15.4-11.48,2.57-4.9,16.97-7.81,20.32-4.02,4,7.45,7.3,11.08,13.84,15.6l15.27,10.57c12.46,8.62,30.61,45.43,35.74,47.54,12.43,5.1,24.59,10.19,33.94,16.96-1.16,7.34-1.22,12.34-.84,19.14-1.41,3.83-.39,5.05,2.48,2.07l.77-24.98-34.7-16.23-22.87-33.13c-12.11-17.54-26.64-21.28-34.73-30.79l-9.36-11c-2.89-3.39-24.7.83-26.43,12.91l-15.65,5.8c-5.35-5.9-9.29-9.42-15.12-13.89l-14.52-11.13c-.8-4.02-3.28-9.4-6.08-9.52-3.79-.16-8.44,1.3-12.48,3.26l-20.14-.68-.2-244.99,36.66,1.15c16.07,10.72,34.81,17.04,55.49,17.79l16.47,1.66-4.94-2.97c-1.07-.65-3.25-3.13-2.21-3.83l4.9-3.32c4.21-2.85,7.88-6.2,13.51-5.42,6.49.9,8.03-.38,12.73-5.03,3.96-3.92,12.16,2.46,15.52,5.66,5.13,1.59,13.66-2.91,17.05-5.73,5.17-.87,11.52-1.84,16.21-3.71l17.54-7.01c5.03-2.01,16.24-.67,21.48-2.19,5.6-1.62,8.16-3.54,13.96-.14-14.94,10.14-29.25,14.23-46.46,18.9l9.83-.73c3.23-.24,7.05.73,9.84,2.61,7.98-8.26,19.71-14.4,32.45-13.05,10.18,8.5,12-6.75,26.19-11.32l-5.99-4.38c-1.45-1.06,4.75-5.7,6.48-4.77l19.6,10.43c4.57,13.27,17.53,22.79,31.47,21.5,1.67-11.68,11.19-20.27,22.2-18.59l3.68,17.78c4.93,1.3,13.46.87,20.08-.54l4.23-8.83c21.08-3.43,41.32.72,60.26,10.86,15.75,1.28,30.31,4.63,44.46,10.8l25.67,2.98c5.27.61,8.66-.58,13.8-1.62,15.21-3.08,32.04,4.43,43.05,15.51-4.57,6.01-12.51,6.6-19.11,4.74l-10.11,8.49c26.09,4.97,52.49,7.37,80.11,3.84l25.57-5.78c5.97,6.32,12.84,8.52,20.89,4.7l4.19,7.1c20.81.42,23.04,12.65,19.53,12.34l-8.02-.71,10.21,10.53,7.41-6.88c-3.59-7.33-8.44-13.44-15.7-20.36l10.16-9.75c8.92-.32,18.33-2.16,25.89-5.69l12.31-5.76c-9.09-5.78-16.37,3.99-22.2,6.1-9.13.45-18.59-1.14-23.91,7.01l-14.8-4.97c7.51-14.65,19.31-10.19,35.33-16.36,20.85-8.03,33.94,1.84,31.41,4.41l-3.93,4,20.2,8.73c8.61,3.72,18.9,4.51,27.6,3.58,17.22,8.24,33.42,11.3,52.83,5.82,7.18-2.03,19.02,2.05,27.31,2.85l13.91-2.71-9.2-6.49,5.88-1.03c.6-.11,3.01.11,2.62-.43l-3.52-4.95,26.03-3.82,15.83,8.74,11.88-4.21-3.26,10.56-4.49,14.56,12.23.2,8.85,5.06c1.59-6.01-.4-10.23-5.99-13.58-.53-2.38,3.01-9.23,6-11.03,11.49,1.74,19.26-5.74,27.94-11.84l6.35-4.47c1.45-1.02-1.68-7.39-3.11-6.39l-8.08,5.64c-2.06,1.44-9.37-3.33-7.84-5.33,2.57-3.45,6.92-8.62,6.56-11.8-9.87-13.15-29.16-3.33-46.54-23.8-2.31-2.72,4.81-10.35,7.59-11.61l-6.49-4.05c-1.63-1.01-.98-5.83-.37-7.92,2.46-8.45,8.17-11.31,15.08-12.6,2.98-3.79,8.41-9.06,12.45-11.9,2.26-8.1-2.26-19.37-8.8-24.41l1.62-21.38.55-5.65c.18-1.87,9.9-1.03,9.55-2.17l-1.38-4.54c17.11-6.33,35.47-6.68,54.01-2.37,13.04,3.03,26.62-1.45,41.98,5.75-3.35,5.95-8.58,10.82-14.81,15.78-6.04,4.8-13.42,16.3-21.05,17.55l-34.47-1.59,11.13,6.18c-1.27,3.14-6.78,7.66-9.37,9.3l-13.19,8.33c.29.03,4.44.13,5.13.75l3.12,2.79c7.93,2.8,15.7,6.63,22.38,11.87l2.43,12.87,26.84,18.94-20.87,2.21,10.17,2.68-11.76,7.9,16.7,2.64,10.4,1.65c8.06,1.28,14.46,1.86,22.76,7.82l-15.81,1.26c4.11,2.14,8.38,4.28,10.33,6.16s1.08,8.16.69,11.78c-.27,2.5,6,5.45,9.07,5.48l4.8-17.81,13.85-7.36,22.79,13.25,3.64,12.01c.33,1.09-1.02,4.26-2.05,3.89l-6.31-2.29.15,10.99,18.97,16.39,13.48-5.08c5.26-8.68-9.49-11.53-6.42-16.74l3.83-6.49c.99-1.68,7.55,1.03,7.74,2.97l.88,9.12c7.14-4.96,11.36-14.99,13.86-24.18,4.8-.2,11.83-2.5,13.13-6.88-4.14-3.01-8.37-5.6-9.43-8.54-1.42-3.91-1-13.02,2.5-13.56,16.94-2.59,30.9,1.19,46.89,3.5,5.08.73,14.87-3.14,15.54,4.68.4,4.73,10.29,7.64,15.99,7.46,1.66.01,6.51,4.25,5.12,5.07l-7.17,4.18,10.72,4.41c-6.87,9-14.21,8.86-25.51,8.4l6.67,5.32c1.32,1.06,1.01,4.07,1.07,7.19l13.79,9.98c2.06,2.76-.82,12.14-3.61,14.61l-21.7,11.86c-4.34,2.37-7.07,4.38-9.97,6.7-6.31,5.04-16.14-3.39-18.49-9.15-.59,5.83,2.66,9.83,8.49,13.89l-4.7,4.37,10.27,9c-13.98,3.8-18.71-9.57-27.93-14.51-4.41-2.36-13.38-1-14.7-8.06l-24.84.53-.62,3.25,15.5,6.01-12.22,9.35-19.98,13.15,9.44,3.92-18.97,21.18c-8.02,8.95-17.35,10.65-29.24,9.21l-13.61-1.65-5.01,11.6c-7.65,1.64-16.63,2.03-24.28,1.83,5.3.42,16.97,6.92,13.15,11.91-7.57,9.89-21.86,8.44-33.56,8.99l6.04,4.82-11.96,4.84-9.65,9.05-14.43,11.55c-6.09,17.93-22.71,22.07-20.17,53.92.36,4.51-1,15.67,8.21,15.96l22.89.72,12.88,25.37c2.93,5.77,4.06,8.64,2.9,15.94,14.38,1.36,25.14-6.97,39.48-2.69l24.46,7.3c7.46,2.23,14.87,2.87,21.08,7.27l17.8,12.62,39.49,13.96c10.49,6.87,17.14,6.21,29.45,7.32l40.23,3.61-2.25,18.83c2.19,10.03,8.6,20.69,1.16,31.52l11.99,14.52c12.03,14.57,20.67,14.7,26.28,26.1l11.48,5.09,9.36-12.07,12.22,7.66-3.95-10.69c21.01-12.67-1.42-21.62-1.88-54.01-4.92-4.38-9.74-11.49-11.22-18.56,22.88-5.03,45.16-12.39,58.5-32.1,9.71-14.35,4.12-38.38-8.92-48.83l-20.49-12.41c-14.63-8.86,5.32-12.98,10.32-28.03l8.13-4.93-5.81-15.45c-.97-2.58-2.18-6.14-4.09-6.63l-10.05-2.58c7.35-2.2,15.76-12.41,10.62-18.95-3.31-4.22-7.56-9.98-6.68-14.89.72-4.06,7.41-9.41,12.6-10.04,12.19-1.48,24.18,4.54,36.6,5.84l18.37,1.92c6.36.66,15.75-3.93,22.86-6.78l35.26,18.78c2.28,1.22,7.58,2.74,10.63,3.61l-2.53,3.29c-3.87,5.04,11.77,10.9,29.52,10.6l5.18,4.6c.98.87,3.77-1.42,5.34-2.32,1.27-.73,5.1,0,6.11,1.06,1.26,1.32-1.03,4.53-3.46,6.57-2.57,2.16-.19,10.49-1.07,13.26l-1.37,4.31,1.68,5c1.53,4.55,3.46,11.77,6.83,13.87,1.11.69,4.46,1.35,3.91,1.96l-3.99,4.44,18.23,2.05c2.3,9.49,19.38,13.29,17.18,14.12l6.11-2.29,16.24-8.79c6.3-2.71,11.69-3.46,16.3-11.61,2.02-3.57,2.91-8.18,2.72-12.13l15.02-19.9,5.34.4c5.03,10.2,12.89,20.49,21.46,28.5l6.41,9.32c1.16.7,5.5,2.17,5.62,3.51l.56,6.48,5.74,2.59c1.14.52.67,3.15.74,5.13l13.38,10.15c1.75,1.33,4.26,7.3,5.13,8.63l-7.36-.37,11.61,9.19c5.48,4.78,2.58,14.38-2.21,19.11l-1.1,3.47c11.32-1.48,10.26,9.3,25.49,10.84l4.23,10.96,15.2,3.2c5.61,1.18,8.66.79,12.68,6.45,2.63,3.7,9.16,3.71,14.7,1.76l18.12,8.7-16.96,4.81,3.18,2.75c10.2-3.39,13.96,4.9,17.39,10.82,10.31-2.7,25.84,7.21,25.64,11.34l-.64,13.72,2.47,11.66c1.31,6.19-20.73,17.88-26.83,18.98l-18.51,3.35c-10.63,1.92-15.14,7.98-22.56,13.67l-18.37,14.07-35.85,1.41-36.23-1.48-50.33.28c-9.88.05-23.09,4.42-27.73,13.06l-4.93,9.19c-1.15,2.14-8.9.62-11.12,1.61-7.58,3.41-18.03,8.37-23.14,14.41l-12.81,15.15c-5.29,6.26-9.01,11.88-14.82,17.37l-10.66,10.07c-1.12-.13,2.14.26,4.42.54l11.97-10.71,15.37-16.41c15.43-12.77,34.16-19.28,52.81-25.26,26.76-8.59,54.16-3.21,53.4,9.9-.4,6.94-19.63,17.29-25.04,16.23l-15.13-2.98c.43,2.72,1.59,3.33,3.67,3.16l9.23,6.11,16.89-3.04c3.15-.36,5.37.76,2.53,2.65l-8.69,14.91c-5.43,1.61,5.55,1.27,5.31,1.38.19-.09-.51,2.92-.61,3.61l8.27,16.41,12.5,1.44-3.2,5.61,23.01,5.53c5.9,1.42,12.43.38,18.07-1.9l9.79,4.24c.36-9.81,1.69-12.07,6.98-18.66,2.89-3.6,8.07-11.69,11.61-14.09,6.59.36,7.73,9.74,2.74,15.46l15.14,4.7c-4.83,15.25-21.01,12.65-31.74,17.96l3.26,2.05c.5.31,3.24,1.1,2.71,1.35l-4.18,1.95-19.33,7.04-24.42,8.35c-4.95,1.69-9.82,3.17-14.81,2.64l-3.47-.37c-.78-.08-.69,1.23-.67,3.89-7.07,8.67-16.26,15.94-26.35,21.86l-13.04-10.11c-2.77-9.4,2.28-18.29,10.25-22.63l23.38-12.72c2.05.78-1.43-.54-2.89-1.1l-5.54,1.36c-.84.21,0-2.4.96-4.9,3.38-2.42.62-2.76-2.03-1.85l-12.74,6.63c-2.18,1.13-7.65,1.82-10.59,2.23-8.32,3.15-20.09,5.04-25.37-4.25l-5.75-10.13-3.14-22.99c-.71-5.22-.26-10-3.84-13.27-6.27-5.71-17.5,2.12-18.86.78l-4.76-4.69c-5.05-3.21-9.14,5.34-10.83,8.96ZM964.45,152.22c1.06-4.91,1.93-6.35,3.61-7.39l10.58-6.55c-5.83.45-9.19,2.02-13.38,4.44l-14.18,8.21,13.37,1.29ZM1671.68,185.97c1.43.63,7.09-.02,7.29-1.5.15-1.11.5-3.78.49-3.73-8.38-1.36-13.68-1.61-20.13-.24l12.35,5.48ZM402.58,216.53c-8.3-3.55-15.12-2.98-22.99-1.72,7.3,3.08,15.06,4.45,22.99,1.72ZM1870.5,245.92l-20.86-9.81c-7.36-3.46-15.16-5.3-24.19-4.12l18.6,10.33c6.47,3.6,17.73,4.19,26.45,3.6ZM641.27,367.18c7.36.92,8.5-4.3,7.28-8.28l-7.28,8.28ZM333.52,368.12l-.49-5.02c-5.61-1.95-12.75-1.83-14.64,2.16l8.39-1.04c1.14-.14,2.09.9,6.74,3.9ZM912.88,426.07l-.88,1.02c-.15.63-.32,4.98.99,4.85l5.31-.52-5.41-5.35ZM951.1,483.59l-1.2,1.44,9.3,9,2.58-5.19-10.68-5.24ZM2455.95,542.67c6.13-1.46,12.47-5.14,14.38-9.62l-16.71,4.22c-1.4.35-3.93,2.5-4.71,3.47-.52.65,1.24,3.31,2.05,3.12l4.99-1.19ZM2435,728l-7.35,4.41,1.94,3.24,7.35-4.41-1.94-3.24ZM2370.03,745.26c-3.12-2.41-9.82-2.45-10.35,2.51l10.35-2.51Z"/>
      <path d="M1984,806.01c-5.04,4.33-9.2,10.33-12.28,15.56l-6.89,11.73,14.62,6.92c12.07,3.21,22.53-3.52,32.6-7.79,16.97-7.19,33.47-12.85,47.73-24.68l-4.08-12.28c10.84-2.79,20.55-2.85,31.59-.75,14.4,2.74,27.86-6.57,27.82-7.61l-.25-6.26c-.08-2.08-1.06-5.75.31-6.7l5.82-4.07c5.32-3.72,12.78-15.5,21.24-15.57l63.75-.51c1.98-.02,4.83-3.2,6.37-3.84l11.75-4.89c6.54-2.72,11.19-12.4,14.26-18.97l11.41-24.39,9.14-7.51,4.48,5.5c.94,1.15,21.85-6.68,22.19,3.95l.96,30.66c6.21,2.6,6.87,7.68,8.73,12.3,2.27,1.79,8.22,5.48,8.38,8.48.14,2.56-4.37,6.12-7.1,7.19l-15.63,6.15c-1.9.75-6.18,4.85-7.87,3.75l-7.16-4.65c-2.56,11.44-12.25,15.78-24.28,15.99l-13.41,20.14.71,8.29-4.64,5.22,7.65,10.67c1.18,1.65,5.83,5.93,6.99,4.31l4.8-6.69.31,9.91-18.29,2c-1.65.18-5.45,3.37-6.66,2.4l-4.29-3.39c-4.11,13.09-25.89,2.66-45.52,15.23l33.69-2.31c-14.05,10.4-30.04,11.23-45.7,13.2,6.29,4.4,2.51,17.35-1.02,21.91l-13.85,17.91c-3.59-4.85-4.78-6.45-10.71-9.45.53,11.38,12.96,16,4.01,28.45l-17,23.65c-.44-6.5,1.39-10.18,3.52-15.31,1.69-4.06-5.5-11.85-9.72-13.84l2.25-4.83c.33-.7-1.76-2.87-1.73-3.64l.53-14.24c-7.34,7.24-4.18,16.93-3.08,25.97l2.54,20.91c-.91,1.64-3.51,5.37-2.16,6.2l7.43,4.61,3.89,17.45-13.68,2.96,14.88,4.23c-1.08,5.05-5.46,11.9-8.89,13.35-1.2.5-5.91-1.21-6.23.06l-1.45,5.79c-.24.95,2.56,1.47,5.7,2.5l-8.37,6.9c-12.98-1.31-20.7,7.55-26.48,17.86-12.38-.59-21.9,5.87-25.77,17.75l-18.44,13.1c-5.07,3.6-7.85,4.55-11.35,8.6-12.23,14.19-19.68,26.05-15.99,44.01,3.02,14.71,8.61,27.31,16.68,39.7-.17,5.17.55,12.02,2.47,17.21l7.47,20.25c3.37,14.8-3.71,30.44-7.1,42.9-2.25-1.39-4.64-2.62-5.72-2.49l-11.42,1.36c2.53-10.55-5.31-13.35-10.62-18.73l-12.84-20.46c-3.66-5.83-6.76-11-8.94-17.24-5.93-17.03,6.52-24.17-2.13-33.39l-13.03-13.89c-2.9-3.09-9.76-10.39-13.83-8.57l-22.36,9.98c-8.66-14.24-22.59-20.11-38.48-17.38l-19.34,3.32-.91-8.19-3.45,5.14c-1.45,2.16-21.05-5.34-33.81,8.55l10.2-.7c-1.46,2.94-3.48,6.11-6.66,10.5l12.94,7.95c-1.94,2.33-4.87,4.97-6.02,4.15l-4.09-2.92-10.55-6.49c-1.75,4.56-3.08,7.71-4.53,7.1-1.16-.49-4.35-2.61-5.58-2.36-2.58.54-8.57,4.23-10.47,2.51l-7.14-6.43c-3.64-3.28-10.08-7.65-13.86-9.76l-5.99,6.78c-1.04,1.18-6.47-.47-8.16-1.27-21.98-10.35-38.2,4.17-41.44,1.61l-4.99-3.94c-.85.83-2.59,3.23-1.83,3.92l3.21,2.9-9.91,8.88c-6.84,6.13-14.98,8.9-22.91,9.88l-15.67,14.97-4.31,2.16c3.13-1.56-9.02,22.12,2.21,40.9-11.97-.98-29.42-5.57-37.39-10.52-8.44-5.24-9.51-19.05-14.51-28.32-.67,8.99,3.84,20.05,10.15,28.53,9.98,6.82,29.02,13.45,43.25,13.05l-7.63,18.19c-6.24,14.87-6.46,30.99-7.57,47.07-.84,12.15-2.04,23.81,8.34,32.98-1.81,8.4,2.2,16.64,7.95,23.37,7.08,7.57,11.38,15.24,14.9,25.16l11.73,12.65c10.4-.17,18.25,3.43,24.13,12.44l12.08-2.11,20.02-4.69,23.95-4.99c.46,4.11.31,5.67,1.38,5.63l6.27-.23c1.48-.06,5.29-3.71,4.06-4.56l-4.83-3.35c28.1-9.74,18.87-38.36,27.02-47.46,6.79-7.59,18.04-7.14,26.96-9.43,7.63-1.96,15.78-4.38,22.78-3.87l19.84,1.46c7.27.54,7.14,12.42,2.06,17.14-6.78,6.29-9.86,14.53-12.66,22.87l-3.8,3.66c-.45.43,1.81.57,2.43.48l3.46-.5-9.16,32.96-5.41-14.71-17.24,17.92-11.79,1.87-33.15.54-.14,9.81c-.02,1.78-3.02,2.72-7.24,4.55l12.36,10.8c3.98,3.48,7.39,8.3,6.11,13.28l-25.61.71c-14.36,14.17-7.33,22.4-12.4,33.98l-24.95-23.71c-8.32-7.9-24.38-15.86-35.75-11.37l-18.65,7.35c-10.15,4-17.63,2.24-27.69-1.15l-19.47-6.56-15.97-7.41-28.31-9.93c-13.3-4.67-23.37-11.9-34.97-19.57-9.02-5.97-25.68-3.39-33.92-11.96-4.47-4.65-9.3-10.77-15.17-12.92-15.86-5.84-26.16-16.97-31.47-33.4l8.36-4.1c-8.21-4.91,5.45-11.77,2.23-16.24l-6.63-9.2-4.39-16.84-14.54-17.84c-7.71-9.45-15.17-17.62-25.16-24.97-4.78-3.52-7.38-7.65-8.75-13.39l-20.23-11.67c-16.5-9.52,9.99-22.34-12.61-27.28-8.84-12.88-20.7-9.44-19-25.15-6.37-2.05-12.75-5.32-17.15-10.39l-14.3-16.47c-.86,2.57-5.08,6.24-5.82,4.7-1.6-3.37.45-9.66,2.08-12.63l-11.03-23.18c-2.78-5.85-4.09-12.04-3.88-18.61l-13.65-6.64-19.9-6.33c-3.38,5.88-.76,17.13.7,24.14,2.15,10.32,2.57,16.97,12.44,22.66,4.94,2.85,9.02,9.95,12.74,14.68l13.81,17.57c.14,8.47,3.3,10.85,7.96,16.88l10.08,13.05c4.45,5.76,8.77,8.87,10.37,16.08,2.51,11.35,7.96,22.62,15.63,30.1-.77,2.57-2.17,7.15-1.93,9.7.2,2.19,4.54,5.93,5.93,6.76l1.57-7.04,7.37,9.38,3.09-3.24c.98,6.86,3.58,11.48,7.61,16.95,4.4,5.97-9.11,16.02-13.16,12.2-3.51-6.55-6.06-12.99-11.42-17.21-6.37-5.02-13.63-12.29-20.47-14.44l-11.57-3.63c-7.45-2.34,4.84-19.38-1.17-32.88-1.82-4.08-8.18-7.12-12.75-10.91-5.86-4.86-9.87-7.54-17.25-7.39l-14.42-9.71c-5.19-3.49-9.88-9.59-14.79-15.2l18.05,2.65c-2.68-8.64,7.97-13.76-1.78-22.4l-17.65-15.63c-8.84-5.09-10.01-9.27-13.88-17.64l-16.82-36.39-8.65-18.4,36.41-2.98c5.4-2.28,12.03-2.63,14.11,4.08l76.95,26.71,61.1.04,1.91-10.01,34.01.25,11.23,10.17,1.45-1.4-10.68-10.96-38.94-.15-.88,10.69c-18.36-3.18-38.69,2.81-56.96-1.76-25.54-6.38-49.48-16.51-74.28-25.17-2.72-3.37-6.75-6.66-11.94-6.17l-45.23,4.32c-.74-15.37-10.02-23.95-23-28.12-3.64-4.13-8.9-6.28-14.77-7.01-13.47-12.42-30.81-6.95-31.77-11.51l-2.05-9.8c-1.15-5.49-7.79-12.1-11.64-17.08l-14.1-18.25,3.9-10.81c-8.08-1.47-13.4-6.27-13.09-13.42.34-7.87-5.31-9.19-8.45-13.63l-11.78-16.66c-10.68-15.11-2.48-23.52-12.38-30.94-7.84-5.88-7.34-12.13-2.57-19.76,10.11-16.18-9.02-37.94-3.65-52.73,4.81-13.23,7.78-24.42,8.99-38.03l3.39-38.25,6.33-2.94-8.68-2.1c-.01-5.29.55-12.51-.73-15.98l-6.4-17.48c-2.48-6.76-6.51-12.13-3.86-17.83,12.56,3.93,21.35,5.83,32.79,6.97l13.65,1.36c-.29-6.17-2.19-7.45-4.83-1.42-3.6-4.63,5.21-9.54,2.06-13.74l-5.04-6.72,578.18.02,4.78-11.71,5.21,15.56,22.11,6.86c10.98-5.42,19.31-.6,26.64,6.14,10.08-2.12,14.7,9.53,29.86,3.04l26.33,4.55-22.33,9.71c-10.26,4.46-17.32,12.53-26.78,21.43l26.98-6.05-1.48,6.57c7.28,2.15,13.73,1.49,20.72-1.96l23.05-11.39c6.31-3.12,11.75-6.32,18.35-6.38l-14.21,14.22c8.57-.64,14.51-.56,19.47,4.73,7.37,7.87,16.6,7.47,25.16,1.51l24.67-3.27c1.85,3.55,3.11,7.56,5.49,7.73l10.31.74,6.88,11.39-17.84,1.49c-10.67-5.02-27.53-1.97-35.5,6.57l-10.38-1.32-17.76,27.79,19.48-16.27-7.31,15.84-9.61,32.29c-.85,2.84.22,32.48,9.76,38.35,10.28,6.32,28.41-19.02,20.19-35.82-5.01-10.23-2.63-19.29.59-29.45,2.57-8.12,4.8-12.77,13.52-17.72.74-.4,1.77-.74,1.89-.08l1.22,6.49c-.08.15,2.37-5.03,3.3-6.99l9.9-17.36,22.98,9.75c2.18.92,6.22,3.42,7.78,4.89,1.3,1.23-.13,6.09.75,7.97,6.79,14.46-9.11,22.29-10.83,27.15-.44,1.24,2.75,4.19,3.99,3.75,3.62-1.28,15.25-15.76,19.33-7.15,3.67,7.76,5.85,18.61,5.77,26.44ZM1491.59,1081.6l-1.93,1.79,20.32,17.39,7.48,19.64c6.2,6.97,15.55,11.18,23.26,13.78l1.15-1.56c-6.91-3.42-16.68-7.51-22.18-14.32-2.99-3.7-3.67-15.56-7.29-18.7l-20.81-18.02ZM1828.08,1109.73c-4.12-3.22-7.21-6.14-8.17-4.87l-4.08,5.34,12.25-.47ZM1600.55,1134.51c-7.4-14.68-25.6-23.9-40.95-17.96-8.15,3.15-4.59,16.31-16.24,17.79l-1.08.89c2.65,1.73,9.49-.32,10.84-3.23l4.76-10.3c9.75-6.38,22.63-4.76,30.92,3.47l10.42,10.35,1.32-1ZM1601.32,1136.08l-1.62,1.11c4.14,9.82,10.01,18.58,18.13,27.04-.79-6.47-5.62-10.08-8.7-15.2l-7.81-12.95Z"/>
      <path class="cls-1" d="M964.45,152.22l-13.37-1.29,14.18-8.21c4.19-2.42,7.55-3.99,13.38-4.44l-10.58,6.55c-1.68,1.04-2.55,2.48-3.61,7.39Z"/>
      <path class="cls-1" d="M402.58,216.53c-7.93,2.72-15.69,1.35-22.99-1.72,7.87-1.25,14.7-1.83,22.99,1.72Z"/>
      <path class="cls-1" d="M333.52,368.12c-4.64-3-5.59-4.04-6.74-3.9l-8.39,1.04c1.89-3.99,9.03-4.11,14.64-2.16l.49,5.02Z"/>
      <path class="cls-1" d="M641.27,367.18l7.28-8.28c1.22,3.98.08,9.2-7.28,8.28Z"/>
      <g>
        <path d="M1220,0l23.85,7.02c14.3-4.82,31.65-8.49,46.42.84,15.11,9.54,33.37,13.65,28.98,16.23l-4.57,2.69c-26.09,6.93-51.13,14.58-75.04,26.55-3.31,3.47-7.47,5.4-11.81,6.33-9.16,1.98-10.19,12.47-13.43,18.16-5.53,9.72-20.28,4.96-27.52,7.34l-27.86,9.19-9.08-10.25c-13.24-10.93-30.54-13.53-46.84-16.04l22.22-25.38c1.6-1.83,3.57-6.47,4.43-8.93l15.86-16.56c-4.05-2.4-8.82-5.83-11.36-8.83L1128.78,0h91.22Z"/>
        <path d="M2008.65,124.69l-11.27-3.99-5.1,5.14c-1.32,1.33-7.09-1.86-9.04-1.98l-49.25-3.12c-14.07-.89-26.7-.73-37.62-10.22l-20.58,1.44c-12.78.89-36.09-9.52-35.51-23.43l24.21,3.3c6.08.83,10.61,2.03,17.88,1.6-3.09-3.43-7.94-6.86-12.11-7.28l-38.63-3.89-.78-14.52-.18-6.57c-.04-1.41,3.18-2.96,5.33-4.11l-3.01-2.71c-.74-.67.77-2.51,1.57-3.58l9.6-12.88c17.27-23.17,62.37-30.52,89.38-19.21-16.42,7.25-30.35,13.98-36.13,27.86l8.62,6.62c1.96,1.5.39,5.57-2.38,9.93,8.7,7.55,16.98,11.76,29.9,17.67l-9.82,4.8,9.33,1.69,6.57-11.08c-8.7-1.97-16.87-2.82-23.28-13.89l20.15-5.77c-5.99-.75-17.49-2.39-17.98-10.75-.31-5.21,7.63-14.81,12.65-16.46l29.8-9.77c11.52-3.78,25.49-3.03,37.42-2.38,7.06.39,9.56,6.5,10.59,12.35,3.82,2,13.62,7.1,12.96,11.57l-.88,5.9c-.15.98,2.02,1.4,5.55,2.86l-7.45,4.51-.04,11.81,18.3-14.02c8.79,5.96,15.09-1.09,19.71,6.57l10.84-3.48-3.86-4.47c13.29-7.63,25.94-4.41,40.33-3.35l18.84,1.38c7,.51,12.36,6.89,13.79,12.49,2.41-.4,9.88-1.57,11.3.36l5.19,7.08c10.39,1.47,14.81,11.64,17.43,10.35l7.01-3.47c10.7-5.29,33.5,3.04,37.6,9.92,3.66,6.14-17.01,1.61-21.96,10.49l23.19-5.56c4.32-1.04,8.1.46,10.57,4.44l10.35,1.57,26.08,4.69c1.76.32,4.61,4.43,4.72,6.02s-3.07,4.37-4.77,4.69l-16.02,3,20.89,1.16,6.04-6.68c9.17,1.97,20.88,7.73,22.9,18.86l-14.77-1.5-20.91,4.86,24.49.1c9.39.04,17.93,3.36,23.85,11.31l-30.07-.52.96,4.83c.27,1.38-2.28,3.32-3.23,3.96l4.86.81c.72.12,1.23,2.37.54,2.65l-6.05,2.48,18.49,3.22,10.28.58c2.36.13,3.59,5.86,4.37,9.78l6.88-.25c6.13,3.87,14.52,2.11,20.35-1.3l29.9,16.52-14.66,4.73,29.6.63v7.47s14.96-3.27,14.96-3.27l21.76,12.15-10.86,9.43-12.87,3.71,8.67,3.86c-5.76,4.5-6.88,6.36-7.92,12.38l-20.65.22c1.81,7.19,1.88,10.92,2.02,19.36l-19.57-5.85c-7.23-2.16-13.06-2.63-18.46-10.51l-7.65-11.17-9.66-4.71-18.73-11.99c-.89,1.55-3.06,6.29-4.95,6.01l-12.44-1.88,15.92,10.43-9.25,7.03-9.98-7.43-2.71,2.74c-.37.38,6.94,2.96,6.79,4.84l-.45,5.67c17.01-12.01,13.81,15.21,38.56,18.46,4.76.62,9.95,3.77,13.72,6.55l5.97,4.39c1.51,1.11-1.44,3.82-4.64,5.87l7.44,4.42c1.95,4.18,5.9,7,11.94,7.9l-.14,14.05-12.07-5.06,4.13,9.64c.86,2-3.68,4.52-6.96,5.14.87,1.55,2.15,5.73,4.07,6.1l10.03,1.97c.68.69-3.83,5.99-5.42,4.97l-8.3-5.31c-4.56-2.92-12.11-7.46-17.47-9.53-22.87-1.97-37.48-21.01-38.42-15.39l-.4,2.41c-7.28-4.63-13.47-9.45-22.23-6.39l24.6,15.33c11.55,7.2,23.38,13.41,33.87,21.8l-3.94,4.32c-.41.45,7.47,4.48,4.61,4.99-.63.11-3.48.6-4.53.37l-43.3-9.33c-12.13-2.61-21.93-5.33-28.29-14.47l-21.8-.69,11.61,4.95c-6.88,5.33-15.06,1.89-18.95-4.5l8.69-1.6-11.32-4.23c-6.55-2.45-12.31-5.23-17.28-9.16l12.63-4.77-19.64-5.88-17.72-10.9-5.12-5.91-7.12,1.75c-1.81.45-4.11-3.6-6.06-6.27-15.13,14.11-27.88-2.56-32.78,2.69-11.71,12.56-41.37,6.09-48.62-.95-2.23-2.16-1.82-10.74.89-12.16l11.61-5.13,2.82-6.18c2.56-5.61,24.78,7.37,56.62-.85,6.5-1.68,10.58-1.91,19.88-2.59l-18.77-16.1,25.5-15.86,7.21-5.14c2.37-3.44,6.11-7.57,9.88-10.34l-15.87-22.8-10.49-5.25c-1.24.66-4.36,3.24-5.38,2.11l-5.22-5.77c-5.23-.95-11.95-5.2-14.53-11.43-16.69-2.47-32.16,10.37-33.89,6.83l-2.95-6.05c-2.77-5.68,16.41-2.14,21.37-9l-32.27-12.91,6.4-4.15-17.13,1.2,2.01-10.68c-8.78.22-14.27-.93-20.1-5.49l-8.52-3.13c-1.59-.59-6.62,3.95-4.87,4.6l5.41,2.02c2.47.92,6.01,3.39,6.1,5.57s-5.54,6.12-7.77,5.84l-46.34-5.8c-.63,1.91-1.04,2.92-.43,3.12.71.24,3.45,1.18,3.35,1.15l1.26.47c9.49,3.49,20.76,4.74,33.43,2.86-1.94,10.07-13.13,8.75-20.37,5.4l-14.81-6.85-1.16-.13ZM2150.14,70.92c-3.61-1.49-9.45-3.43-9.4-1.89l.19,6.84,9.22-4.95ZM2244.97,218.68c2.15.18,4.12.78,4.65-.04l2.89-4.44c-5.04-3.87-12.01-5.82-19.83-7.21l-12.5-9.54-9.5,12.54c3.47,2.03,7.09,3.51,7.19,5.59l.47,10.45,9.08-7.43,17.55.07Z"/>
        <path d="M1274.57,123.91c.04-1.94,4.68-6.36,6.81-6.66,22.54-3.11,44.02-6.29,66.63-4.67,13.61.98,26.22,2.06,40.35.09-12.79-4.18-28.2-10.22-42.44-9.39l-56.04,3.27c-12.37.72-27.56-2.87-34.13-9.65-1.27-1.31,3.36-6.1,5.26-6.46l40.79-7.88-17.51-.05-24.34,1.93,3.22-4.66c.37-.53-.76-1.77-1.41-1.82l-19.6-1.37c-2.86-12.58,19.37-15.91,17.61-17.4l-5.45-4.62c20.9-15.55,57.35-24.54,84.9-27.97,4.31-.54,9.77,5.11,9.48,8.42-.48,5.4-3.34,7.79-9.03,11.15l18.32-1.56,6.74-8.47,32.79,7.16c1.27.28,5.36,3.17,4.78,4.14l-4.1,6.91,26.03-7.12c-5.25-2.93-9.18-5.22-11.32-10.36,15.79.72,29.84,6.44,42.14,14.47.37,6.53,2.31,12.35,6.25,16.91l4.49,5.19c.95,1.1,4.63-.55,5.81-1.4l4.58-3.31c1.15-.83-3.98-4.03-4.46-5.46l-7.77-23.37c-.97-2.92-1.89-7.39-1.43-9.96s6.21-2.71,9.38-2.45l19.96,1.61,16.9,6.1c-5.56-6.5-13.31-8.9-22.7-13.38,14.83-9.37,43.06-9.97,50.38,2.22l-13.68,16.91-8.57-3.17,7.93,11.86,13.5,22.68c1.12,1.88,6.34,5.16,5.72,7.14l-3.02,9.71c10.86,12.41,23.96,13.59,30.56,16.12l31.76,12.17,9.13-1.12,2.11,12.71-9.19,9.03-3.09-8.66c-.72-2.01-5.35.23-8.03,2.51l-8.1-5.99-8.93,8.18-10.6-2.02,5.29,3.9c1.14.84.22,3.13-.1,7.11l8.67-9.34c5.08.06,14.39,7.41,18.59,12.66-15.5,10.3-31.88,8.65-48.35,7.98l-21.32-.87c-7.95-14.52-25.56,1.36-29.29-16.11-10.61,13.19-25.63,13.23-40.87,15.95l-20.91,6.52-19.66,2.79-17.82.13-28.65,1.67c-4.96.29-14.19-5.71-14.81-10.31v-6.32c0-1.33-4.01-4.38-5.53-4.42l-35.09-.93c-14.79-.39-28.69-7.83-39.48-18.62Z"/>
        <path d="M1654.47,86.77c-10.4,6.28-27.44-23.07-48.69-25.78-8.56-1.09-13.42-1.8-20.19-6.44l-13.42-9.19c.25-3.43,5.09-8.25,8.06-9.14,11.93-3.58,17.74,9.56,23.52,8.89l14.36-1.67c-.64-1.42-2.83-5.37-1.59-6.09l6.57-3.79-7.21-3.48c-6.83,1.4-14.39.46-19.32-5.67l14.13-3.52-5.96-.54c-.99-.09-.77-3.45.32-3.4,3.01.12,9.07-.73,12.23-3.65l15.52-.27c17.05,9.02,37.75-6.26,54.66,5.31l-6,5.72c-.92.88-.25,4.15-.22,4.68l-19.28,8.59,14.23.6c2.57.11,4.36,5.49,5.35,7.46,4.8-.69,11.31-1.22,14.65-.38,1.34.34,4.24,5.44,3.33,6.47l-4.8,5.39,3.1,8.21c.89,2.35-4.14,7.85-6.7,8.45l-24.12,5.68-12.53,7.56Z"/>
        <path d="M1973.05,284.24l-4.41-5.01c-5.19,1.88-6.48,3.31-7.58,8.84l-11.98,6.71c-8.64,6.99-16.1,14.06-28.23,10.04l-1.35-14.13-25.83,2.79c-1.39.15-4.52-.15-5.81-.41-1.71-.34.83-6.57,2.37-7.38l15.06-7.99-2.29-7.26,6.29-27.11c2.14-9.25,10.4-13.12,15.43-13.07,1.88.02,4.25,2.89,6.72,5.5.21-.19,1.32-1.86,1.37-2.8l.31-6.38,10.94,10.64c-4.56,4.81-14.28.58-13.53,3.64l1.15,4.69c.29,1.18,4.65.98,5.54.18,1.47-1.31,4.4-4.41,5.67-3.65l5.85,3.52,13.54,4.44,27.62,12.06c7.18,3.14,14.11,8.01,10.28,17.82l19.65-1.15,12.62,10.03-18.02,7.9-28.85-6.5-2.69-4.91c-.78-1.42-3.67-1.46-9.82-1.05Z"/>
        <path d="M2111.2,39.82c-12,8.04-26.18-3.75-53.86,3.7-8.79,2.37-21.15,2.2-26.18-6.63-3.27-5.73-5.18-8.43-14.81-8.45l.75-13.45,36.65,2.47c22.83-.88,42.82,3.18,57.45,22.35Z"/>
        <path d="M1693.67,166.32l-49.53-13.49-4.67.03c-1.48,0-2.18-6.35-.74-6.71l18.36-4.52c-.64-2.81-1.33-6.66.47-7.11l5.46-1.37c.91-.23-.72-4.84.01-5.43,3.85-3.05,13.45-1.07,18.63,1.78l14.22,7.81,5.09-3.29c1.14-.74,1.99,3.79,2.08,5.15.56,8.46,6.43,14.44,17.25,15.48l-26.63,11.65Z"/>
        <path d="M2135.47,188.12c-8.83,10.57-37.71,11.08-43.25,2.72-6.38-9.64,8.45-24.06,14.53-23.8l28.53,1.24.19,19.83Z"/>
        <path d="M1986.61,324.02c-11.72,9.01-25.86,7.41-29.25,1.65-1.25-2.12,1.07-5.87,3.28-8.7,4.55-5.81,7.75-6.08,15-5.91,7.98.18,16.42-6.18,23.6,3.25l-12.64,9.71Z"/>
        <path d="M2051.03,328.69c1.11,5.4-4.26,13.98-9.01,16.35-3.7.13-11.06-5.03-11.45-8.59-.46-4.12,3.22-10,6.68-12.53s12.74-.33,13.78,4.76Z"/>
        <path d="M2054.93,477.94l-6.43,8.18c-1.74,2.22-10.43.23-11.34-1.2l7.73-8.23-4.61,1.11c-1.11.27-3.6-.64-4.73-1.31l16.88-8.42,13.85,5.82-11.64,12.73.3-8.68Z"/>
        <path d="M2168.35,181.98l-23.15-.65c-1.48-.04-4.51-3.62-5.2-4.93-.86-1.63,3.96-5.31,5.86-5.18l14.26.99c4.6.32,8.3,2.55,8.23,9.77Z"/>
        <path d="M2022.71,565.62l-28.43-7.62c3.87-5.93,9.78-6.74,16.32-5.82,4.61.65,10.94,1.52,12.11,13.43Z"/>
        <path d="M2061.72,149.73c-2.92,3.24-9.49,3.99-13.32.44l11.56-10.22c1.83-1.62,7.56-1.35,11.23-.73l-9.46,10.52Z"/>
        <path d="M2088.99,301.43c-2.34,2.88-10.09,5.35-12.32,3.47l-9.79-8.23c9.18-3.62,16.29-2.49,22.12,4.76Z"/>
        <path d="M1674.85,10.01l-33.54,4.53c6.54-7.04,29.26-11.66,33.54-4.53Z"/>
        <path d="M1628.27,148.64l-8.76,11.43c-4.3-2.69-6.4-6.22-4.01-9.01,3.38-3.96,4.54-5.48,12.78-2.41Z"/>
        <path d="M2141.29,162.65c.03,1.88-5.95,3.59-7.56,2.66-1.96-1.14-5.3-4.78-6.55-7.41,4.09-3.76,13.89-.02,14.11,4.75Z"/>
        <path d="M1697.11,36.81c.1,2.22-2.5,5.79-4.13,5.73-2.06-.08-7.48-1.4-8.53-3.15s2.86-5.52,4.86-5.83,7.7,1.21,7.79,3.25Z"/>
        <path d="M2108.64,298.63c-6.26-.34-12.13-2.63-17.71-6.51,6.71-2.9,14.44-3.77,17.71,6.51Z"/>
        <path d="M1902.69,120.66l-21.39-1.39c6.44-5.5,15.31-5.01,21.39,1.39Z"/>
        <path d="M1596.53,156.55c-4,3.56-9.47,4.54-13.98,2.9.16-2.61,3.01-6.15,4.75-5.63l9.23,2.74Z"/>
        <path d="M2102.78,136.83c-3.11,7.7-10.47,7.9-15.76,2.05,4.69-1.79,10.68-2.43,15.76-2.05Z"/>
        <path d="M2289.58,373.38l-13.46,5.34,2.89-7.12c1.08-2.67,6.75-4.81,10.57,1.78Z"/>
        <path d="M1541.33,162.42c-4.48,7.45-10.64,4.36-13.79-1.96l13.79,1.96Z"/>
        <path d="M1718.61,134.37c-.57,2.36-4.37,6.39-5.46,5.44l-6.32-5.54,11.77.1Z"/>
        <path d="M2072.89,128.92c.58,6.63-6.94,8.64-10.94,3.92l10.94-3.92Z"/>
        <path d="M2065.18,162.95l-5.86,2.87c-.9.44-3.9-2.21-3.15-2.88l5.02-4.46,3.99,4.47Z"/>
        <rect x="2052.3" y="165.34" width="5.09" height="7.97" transform="translate(1793.1376 2214.4556) rotate(-87.4183)"/>
        <path d="M2347.62,337.78l-7.84-.77c0-4.16,7.16-4.41,7.84.77Z"/>
        <path d="M2050.99,578.45c.22,1.99.09,4.95-.93,4.93l-6.32-.16,7.26-4.77Z"/>
        <path d="M1614.08,104.85l4.77-.98c.77-.16,1.89,2.9,1.15,3.18l-3.21,1.21c-1.13.42-3.9-3.16-2.71-3.41Z"/>
        <path d="M2157.66,316.99c-.57,1.46-5.7.35-7.33-1.97.59-1.46,5.7-.36,7.33,1.97Z"/>
        <path class="cls-1" d="M1870.5,245.92c-8.72.59-19.98,0-26.45-3.6l-18.6-10.33c9.04-1.18,16.84.66,24.19,4.12l20.86,9.81Z"/>
        <path class="cls-1" d="M1671.68,185.97l-12.35-5.48c6.45-1.37,11.75-1.11,20.13.24,0-.05-.34,2.62-.49,3.73-.2,1.48-5.86,2.14-7.29,1.5Z"/>
        <path class="cls-1" d="M2244.97,218.68l-17.55-.07-9.08,7.43-.47-10.45c-.09-2.09-3.72-3.56-7.19-5.59l9.5-12.54,12.5,9.54c7.82,1.39,14.79,3.34,19.83,7.21l-2.89,4.44c-.53.81-2.5.22-4.65.04Z"/>
        <path class="cls-1" d="M2150.14,70.92l-9.22,4.95-.19-6.84c-.04-1.54,5.79.4,9.4,1.89Z"/>
      </g>
    </g>
  </g>
</svg>